<svg class="sn-flow-chart sd-m-auto" width="267" height="520" viewBox="0 0 267 520" fill="none" xmlns="http://www.w3.org/2000/svg">
<path class="arrow req-spec" fill="black" d="M132.086 141.42C132.867 142.201 134.133 142.201 134.914 141.42L147.642 128.693C148.423 127.911 148.423 126.645 147.642 125.864C146.861 125.083 145.595 125.083 144.814 125.864L133.5 137.178L122.186 125.864C121.405 125.083 120.139 125.083 119.358 125.864C118.577 126.645 118.577 127.911 119.358 128.693L132.086 141.42ZM131.5 99.9937V140.006H135.5V99.9937H131.5Z"/>
<path class="arrow spec-impl" fill="black" d="M131.586 281.427C132.367 282.208 133.633 282.208 134.414 281.427L147.142 268.699C147.923 267.918 147.923 266.651 147.142 265.87C146.361 265.089 145.095 265.089 144.314 265.87L133 277.184L121.686 265.87C120.905 265.089 119.639 265.089 118.858 265.87C118.077 266.651 118.077 267.918 118.858 268.699L131.586 281.427ZM131 240V280.012H135V240H131Z"/>
<path class="arrow impl-test1" fill="black" d="M49.9393 421.073C50.5251 421.659 51.4749 421.659 52.0607 421.073L61.6066 411.527C62.1924 410.941 62.1924 409.992 61.6066 409.406C61.0208 408.82 60.0711 408.82 59.4853 409.406L51 417.891L42.5147 409.406C41.9289 408.82 40.9792 408.82 40.3934 409.406C39.8076 409.992 39.8076 410.941 40.3934 411.527L49.9393 421.073ZM49.5 380L49.5 420.012H52.5L52.5 380H49.5Z"/>
<path class="arrow impl-test2" fill="black" d="M214.939 421.073C215.525 421.659 216.475 421.659 217.061 421.073L226.607 411.527C227.192 410.941 227.192 409.992 226.607 409.406C226.021 408.82 225.071 408.82 224.485 409.406L216 417.891L207.515 409.406C206.929 408.82 205.979 408.82 205.393 409.406C204.808 409.992 204.808 410.941 205.393 411.527L214.939 421.073ZM214.5 380V420.012H217.5V380H214.5Z"/>
<rect class="box testcase1" x="0.75" y="420.75" width="100.5" height="98.5" rx="19.25" fill="none" stroke="#292C33" stroke-width="1.5"/>
<path class="text testcase1" fill="black" d="M32.8125 464V449.727H27.7149V446.82H41.3672V449.727H36.2813V464H32.8125ZM49.0195 460.039L52.3008 460.59C51.8789 461.793 51.2109 462.711 50.2969 463.344C49.3906 463.969 48.2539 464.281 46.8867 464.281C44.7227 464.281 43.1211 463.574 42.082 462.16C41.2617 461.027 40.8516 459.598 40.8516 457.871C40.8516 455.809 41.3906 454.195 42.4688 453.031C43.5469 451.859 44.9102 451.273 46.5586 451.273C48.4102 451.273 49.8711 451.887 50.9414 453.113C52.0117 454.332 52.5234 456.203 52.4766 458.727H44.2266C44.25 459.703 44.5156 460.465 45.0234 461.012C45.5313 461.551 46.1641 461.82 46.9219 461.82C47.4375 461.82 47.8711 461.68 48.2227 461.398C48.5742 461.117 48.8399 460.664 49.0195 460.039ZM49.207 456.711C49.1836 455.758 48.9375 455.035 48.4688 454.543C48 454.043 47.4297 453.793 46.7578 453.793C46.0391 453.793 45.4453 454.055 44.9766 454.578C44.5078 455.102 44.2774 455.812 44.2852 456.711H49.207ZM54.0117 460.449L57.3164 459.945C57.457 460.586 57.7422 461.074 58.1719 461.41C58.6016 461.738 59.2031 461.902 59.9766 461.902C60.8281 461.902 61.4688 461.746 61.8984 461.434C62.1875 461.215 62.332 460.922 62.332 460.555C62.332 460.305 62.2539 460.098 62.0977 459.934C61.9336 459.777 61.5664 459.633 60.9961 459.5C58.3399 458.914 56.6563 458.379 55.9453 457.895C54.9609 457.223 54.4688 456.289 54.4688 455.094C54.4688 454.016 54.8945 453.109 55.7461 452.375C56.5977 451.641 57.918 451.273 59.707 451.273C61.4102 451.273 62.6758 451.551 63.5039 452.105C64.332 452.66 64.9024 453.48 65.2149 454.566L62.1094 455.141C61.9766 454.656 61.7227 454.285 61.3477 454.027C60.9805 453.77 60.4531 453.641 59.7656 453.641C58.8984 453.641 58.2774 453.762 57.9024 454.004C57.6524 454.176 57.5274 454.398 57.5274 454.672C57.5274 454.906 57.6367 455.105 57.8555 455.27C58.1524 455.488 59.1758 455.797 60.9258 456.195C62.6836 456.594 63.9102 457.082 64.6055 457.66C65.293 458.246 65.6367 459.062 65.6367 460.109C65.6367 461.25 65.1602 462.23 64.207 463.051C63.2539 463.871 61.8438 464.281 59.9766 464.281C58.2813 464.281 56.9375 463.938 55.9453 463.25C54.9609 462.562 54.3164 461.629 54.0117 460.449ZM74.2383 451.555V454.18H71.9883V459.195C71.9883 460.211 72.0078 460.805 72.0469 460.977C72.0938 461.141 72.1914 461.277 72.3399 461.387C72.4961 461.496 72.6836 461.551 72.9024 461.551C73.207 461.551 73.6484 461.445 74.2266 461.234L74.5078 463.789C73.7422 464.117 72.875 464.281 71.9063 464.281C71.3125 464.281 70.7774 464.184 70.3008 463.988C69.8242 463.785 69.4727 463.527 69.2461 463.215C69.0274 462.895 68.875 462.465 68.7891 461.926C68.7188 461.543 68.6836 460.77 68.6836 459.605V454.18H67.1719V451.555H68.6836V449.082L71.9883 447.16V451.555H74.2383ZM26.8359 483.234L23.5899 483.82C23.4805 483.172 23.2305 482.684 22.8399 482.355C22.457 482.027 21.957 481.863 21.3399 481.863C20.5195 481.863 19.8633 482.148 19.3711 482.719C18.8867 483.281 18.6445 484.227 18.6445 485.555C18.6445 487.031 18.8906 488.074 19.3828 488.684C19.8828 489.293 20.5508 489.598 21.3867 489.598C22.0117 489.598 22.5234 489.422 22.9219 489.07C23.3203 488.711 23.6016 488.098 23.7656 487.23L27 487.781C26.6641 489.266 26.0195 490.387 25.0664 491.145C24.1133 491.902 22.8359 492.281 21.2344 492.281C19.4141 492.281 17.9609 491.707 16.875 490.559C15.7969 489.41 15.2578 487.82 15.2578 485.789C15.2578 483.734 15.8008 482.137 16.8867 480.996C17.9727 479.848 19.4414 479.273 21.293 479.273C22.8086 479.273 24.0117 479.602 24.9024 480.258C25.8008 480.906 26.4453 481.898 26.8359 483.234ZM31.8047 483.352L28.8164 482.812C29.1524 481.609 29.7305 480.719 30.5508 480.141C31.3711 479.562 32.5899 479.273 34.207 479.273C35.6758 479.273 36.7695 479.449 37.4883 479.801C38.207 480.145 38.7109 480.586 39 481.125C39.2969 481.656 39.4453 482.637 39.4453 484.066L39.4102 487.91C39.4102 489.004 39.4609 489.812 39.5625 490.336C39.6719 490.852 39.8711 491.406 40.1602 492H36.9024C36.8164 491.781 36.7109 491.457 36.5859 491.027C36.5313 490.832 36.4922 490.703 36.4688 490.641C35.9063 491.188 35.3047 491.598 34.6641 491.871C34.0234 492.145 33.3399 492.281 32.6133 492.281C31.332 492.281 30.3203 491.934 29.5781 491.238C28.8438 490.543 28.4766 489.664 28.4766 488.602C28.4766 487.898 28.6445 487.273 28.9805 486.727C29.3164 486.172 29.7852 485.75 30.3867 485.461C30.9961 485.164 31.8711 484.906 33.0117 484.688C34.5508 484.398 35.6172 484.129 36.2109 483.879V483.551C36.2109 482.918 36.0547 482.469 35.7422 482.203C35.4297 481.93 34.8399 481.793 33.9727 481.793C33.3867 481.793 32.9297 481.91 32.6016 482.145C32.2734 482.371 32.0078 482.773 31.8047 483.352ZM36.2109 486.023C35.7891 486.164 35.1211 486.332 34.207 486.527C33.293 486.723 32.6953 486.914 32.4141 487.102C31.9844 487.406 31.7695 487.793 31.7695 488.262C31.7695 488.723 31.9414 489.121 32.2852 489.457C32.6289 489.793 33.0664 489.961 33.5977 489.961C34.1914 489.961 34.7578 489.766 35.2969 489.375C35.6953 489.078 35.957 488.715 36.082 488.285C36.168 488.004 36.2109 487.469 36.2109 486.68V486.023ZM41.543 488.449L44.8477 487.945C44.9883 488.586 45.2734 489.074 45.7031 489.41C46.1328 489.738 46.7344 489.902 47.5078 489.902C48.3594 489.902 49 489.746 49.4297 489.434C49.7188 489.215 49.8633 488.922 49.8633 488.555C49.8633 488.305 49.7852 488.098 49.6289 487.934C49.4649 487.777 49.0977 487.633 48.5274 487.5C45.8711 486.914 44.1875 486.379 43.4766 485.895C42.4922 485.223 42 484.289 42 483.094C42 482.016 42.4258 481.109 43.2774 480.375C44.1289 479.641 45.4492 479.273 47.2383 479.273C48.9414 479.273 50.207 479.551 51.0352 480.105C51.8633 480.66 52.4336 481.48 52.7461 482.566L49.6406 483.141C49.5078 482.656 49.2539 482.285 48.8789 482.027C48.5117 481.77 47.9844 481.641 47.2969 481.641C46.4297 481.641 45.8086 481.762 45.4336 482.004C45.1836 482.176 45.0586 482.398 45.0586 482.672C45.0586 482.906 45.168 483.105 45.3867 483.27C45.6836 483.488 46.707 483.797 48.457 484.195C50.2149 484.594 51.4414 485.082 52.1367 485.66C52.8242 486.246 53.168 487.062 53.168 488.109C53.168 489.25 52.6914 490.23 51.7383 491.051C50.7852 491.871 49.375 492.281 47.5078 492.281C45.8125 492.281 44.4688 491.938 43.4766 491.25C42.4922 490.562 41.8477 489.629 41.543 488.449ZM63.2695 488.039L66.5508 488.59C66.1289 489.793 65.4609 490.711 64.5469 491.344C63.6406 491.969 62.5039 492.281 61.1367 492.281C58.9727 492.281 57.3711 491.574 56.332 490.16C55.5117 489.027 55.1016 487.598 55.1016 485.871C55.1016 483.809 55.6406 482.195 56.7188 481.031C57.7969 479.859 59.1602 479.273 60.8086 479.273C62.6602 479.273 64.1211 479.887 65.1914 481.113C66.2617 482.332 66.7734 484.203 66.7266 486.727H58.4766C58.5 487.703 58.7656 488.465 59.2734 489.012C59.7813 489.551 60.4141 489.82 61.1719 489.82C61.6875 489.82 62.1211 489.68 62.4727 489.398C62.8242 489.117 63.0899 488.664 63.2695 488.039ZM63.457 484.711C63.4336 483.758 63.1875 483.035 62.7188 482.543C62.25 482.043 61.6797 481.793 61.0078 481.793C60.2891 481.793 59.6953 482.055 59.2266 482.578C58.7578 483.102 58.5274 483.812 58.5352 484.711H63.457ZM83.8242 492H80.5313V479.59C79.3281 480.715 77.9102 481.547 76.2774 482.086V479.098C77.1367 478.816 78.0703 478.285 79.0781 477.504C80.086 476.715 80.7774 475.797 81.1524 474.75H83.8242V492Z"/>
<rect class="box testcase2" x="165.75" y="420.75" width="100.5" height="98.5" rx="19.25" fill="none" stroke="#292C33" stroke-width="1.5"/>
<path class="text testcase2" fill="black" d="M197.812 464V449.727H192.715V446.82H206.367V449.727H201.281V464H197.812ZM214.019 460.039L217.301 460.59C216.879 461.793 216.211 462.711 215.297 463.344C214.391 463.969 213.254 464.281 211.887 464.281C209.723 464.281 208.121 463.574 207.082 462.16C206.262 461.027 205.852 459.598 205.852 457.871C205.852 455.809 206.391 454.195 207.469 453.031C208.547 451.859 209.91 451.273 211.559 451.273C213.41 451.273 214.871 451.887 215.941 453.113C217.012 454.332 217.523 456.203 217.477 458.727H209.227C209.25 459.703 209.516 460.465 210.023 461.012C210.531 461.551 211.164 461.82 211.922 461.82C212.437 461.82 212.871 461.68 213.223 461.398C213.574 461.117 213.84 460.664 214.019 460.039ZM214.207 456.711C214.184 455.758 213.937 455.035 213.469 454.543C213 454.043 212.43 453.793 211.758 453.793C211.039 453.793 210.445 454.055 209.977 454.578C209.508 455.102 209.277 455.812 209.285 456.711H214.207ZM219.012 460.449L222.316 459.945C222.457 460.586 222.742 461.074 223.172 461.41C223.602 461.738 224.203 461.902 224.977 461.902C225.828 461.902 226.469 461.746 226.898 461.434C227.187 461.215 227.332 460.922 227.332 460.555C227.332 460.305 227.254 460.098 227.098 459.934C226.934 459.777 226.566 459.633 225.996 459.5C223.34 458.914 221.656 458.379 220.945 457.895C219.961 457.223 219.469 456.289 219.469 455.094C219.469 454.016 219.894 453.109 220.746 452.375C221.598 451.641 222.918 451.273 224.707 451.273C226.41 451.273 227.676 451.551 228.504 452.105C229.332 452.66 229.902 453.48 230.215 454.566L227.109 455.141C226.977 454.656 226.723 454.285 226.348 454.027C225.98 453.77 225.453 453.641 224.766 453.641C223.898 453.641 223.277 453.762 222.902 454.004C222.652 454.176 222.527 454.398 222.527 454.672C222.527 454.906 222.637 455.105 222.855 455.27C223.152 455.488 224.176 455.797 225.926 456.195C227.684 456.594 228.91 457.082 229.605 457.66C230.293 458.246 230.637 459.062 230.637 460.109C230.637 461.25 230.16 462.23 229.207 463.051C228.254 463.871 226.844 464.281 224.977 464.281C223.281 464.281 221.937 463.938 220.945 463.25C219.961 462.562 219.316 461.629 219.012 460.449ZM239.238 451.555V454.18H236.988V459.195C236.988 460.211 237.008 460.805 237.047 460.977C237.094 461.141 237.191 461.277 237.34 461.387C237.496 461.496 237.684 461.551 237.902 461.551C238.207 461.551 238.648 461.445 239.227 461.234L239.508 463.789C238.742 464.117 237.875 464.281 236.906 464.281C236.312 464.281 235.777 464.184 235.301 463.988C234.824 463.785 234.473 463.527 234.246 463.215C234.027 462.895 233.875 462.465 233.789 461.926C233.719 461.543 233.684 460.77 233.684 459.605V454.18H232.172V451.555H233.684V449.082L236.988 447.16V451.555H239.238ZM191.836 483.234L188.59 483.82C188.48 483.172 188.23 482.684 187.84 482.355C187.457 482.027 186.957 481.863 186.34 481.863C185.519 481.863 184.863 482.148 184.371 482.719C183.887 483.281 183.644 484.227 183.644 485.555C183.644 487.031 183.891 488.074 184.383 488.684C184.883 489.293 185.551 489.598 186.387 489.598C187.012 489.598 187.523 489.422 187.922 489.07C188.32 488.711 188.602 488.098 188.766 487.23L192 487.781C191.664 489.266 191.019 490.387 190.066 491.145C189.113 491.902 187.836 492.281 186.234 492.281C184.414 492.281 182.961 491.707 181.875 490.559C180.797 489.41 180.258 487.82 180.258 485.789C180.258 483.734 180.801 482.137 181.887 480.996C182.973 479.848 184.441 479.273 186.293 479.273C187.809 479.273 189.012 479.602 189.902 480.258C190.801 480.906 191.445 481.898 191.836 483.234ZM196.805 483.352L193.816 482.812C194.152 481.609 194.73 480.719 195.551 480.141C196.371 479.562 197.59 479.273 199.207 479.273C200.676 479.273 201.769 479.449 202.488 479.801C203.207 480.145 203.711 480.586 204 481.125C204.297 481.656 204.445 482.637 204.445 484.066L204.41 487.91C204.41 489.004 204.461 489.812 204.562 490.336C204.672 490.852 204.871 491.406 205.16 492H201.902C201.816 491.781 201.711 491.457 201.586 491.027C201.531 490.832 201.492 490.703 201.469 490.641C200.906 491.188 200.305 491.598 199.664 491.871C199.023 492.145 198.34 492.281 197.613 492.281C196.332 492.281 195.32 491.934 194.578 491.238C193.844 490.543 193.477 489.664 193.477 488.602C193.477 487.898 193.644 487.273 193.98 486.727C194.316 486.172 194.785 485.75 195.387 485.461C195.996 485.164 196.871 484.906 198.012 484.688C199.551 484.398 200.617 484.129 201.211 483.879V483.551C201.211 482.918 201.055 482.469 200.742 482.203C200.43 481.93 199.84 481.793 198.973 481.793C198.387 481.793 197.93 481.91 197.602 482.145C197.273 482.371 197.008 482.773 196.805 483.352ZM201.211 486.023C200.789 486.164 200.121 486.332 199.207 486.527C198.293 486.723 197.695 486.914 197.414 487.102C196.984 487.406 196.769 487.793 196.769 488.262C196.769 488.723 196.941 489.121 197.285 489.457C197.629 489.793 198.066 489.961 198.598 489.961C199.191 489.961 199.758 489.766 200.297 489.375C200.695 489.078 200.957 488.715 201.082 488.285C201.168 488.004 201.211 487.469 201.211 486.68V486.023ZM206.543 488.449L209.848 487.945C209.988 488.586 210.273 489.074 210.703 489.41C211.133 489.738 211.734 489.902 212.508 489.902C213.359 489.902 214 489.746 214.43 489.434C214.719 489.215 214.863 488.922 214.863 488.555C214.863 488.305 214.785 488.098 214.629 487.934C214.465 487.777 214.098 487.633 213.527 487.5C210.871 486.914 209.187 486.379 208.477 485.895C207.492 485.223 207 484.289 207 483.094C207 482.016 207.426 481.109 208.277 480.375C209.129 479.641 210.449 479.273 212.238 479.273C213.941 479.273 215.207 479.551 216.035 480.105C216.863 480.66 217.434 481.48 217.746 482.566L214.641 483.141C214.508 482.656 214.254 482.285 213.879 482.027C213.512 481.77 212.984 481.641 212.297 481.641C211.43 481.641 210.809 481.762 210.434 482.004C210.184 482.176 210.059 482.398 210.059 482.672C210.059 482.906 210.168 483.105 210.387 483.27C210.684 483.488 211.707 483.797 213.457 484.195C215.215 484.594 216.441 485.082 217.137 485.66C217.824 486.246 218.168 487.062 218.168 488.109C218.168 489.25 217.691 490.23 216.738 491.051C215.785 491.871 214.375 492.281 212.508 492.281C210.812 492.281 209.469 491.938 208.477 491.25C207.492 490.562 206.848 489.629 206.543 488.449ZM228.269 488.039L231.551 488.59C231.129 489.793 230.461 490.711 229.547 491.344C228.641 491.969 227.504 492.281 226.137 492.281C223.973 492.281 222.371 491.574 221.332 490.16C220.512 489.027 220.102 487.598 220.102 485.871C220.102 483.809 220.641 482.195 221.719 481.031C222.797 479.859 224.16 479.273 225.809 479.273C227.66 479.273 229.121 479.887 230.191 481.113C231.262 482.332 231.773 484.203 231.727 486.727H223.477C223.5 487.703 223.766 488.465 224.273 489.012C224.781 489.551 225.414 489.82 226.172 489.82C226.687 489.82 227.121 489.68 227.473 489.398C227.824 489.117 228.09 488.664 228.269 488.039ZM228.457 484.711C228.434 483.758 228.187 483.035 227.719 482.543C227.25 482.043 226.68 481.793 226.008 481.793C225.289 481.793 224.695 482.055 224.227 482.578C223.758 483.102 223.527 483.812 223.535 484.711H228.457ZM251.519 488.941V492H239.977C240.102 490.844 240.477 489.75 241.102 488.719C241.727 487.68 242.961 486.305 244.805 484.594C246.289 483.211 247.199 482.273 247.535 481.781C247.988 481.102 248.215 480.43 248.215 479.766C248.215 479.031 248.016 478.469 247.617 478.078C247.227 477.68 246.684 477.48 245.988 477.48C245.301 477.48 244.754 477.688 244.348 478.102C243.941 478.516 243.707 479.203 243.644 480.164L240.363 479.836C240.559 478.023 241.172 476.723 242.203 475.934C243.234 475.145 244.523 474.75 246.07 474.75C247.766 474.75 249.098 475.207 250.066 476.121C251.035 477.035 251.519 478.172 251.519 479.531C251.519 480.305 251.379 481.043 251.098 481.746C250.824 482.441 250.387 483.172 249.785 483.938C249.387 484.445 248.668 485.176 247.629 486.129C246.59 487.082 245.93 487.715 245.648 488.027C245.375 488.34 245.152 488.645 244.98 488.941H251.519Z"/>
<rect class="box implementation" x="0.75" y="280.75" width="265.5" height="98.5" rx="19.25" fill="none" stroke="#292C33" stroke-width="1.5"/>
<path class="text implementation" fill="black" d="M46.3946 338V320.82H49.8633V338H46.3946ZM52.9102 325.555H55.9454V327.254C57.0313 325.934 58.3243 325.273 59.8243 325.273C60.6212 325.273 61.3126 325.438 61.8985 325.766C62.4844 326.094 62.9649 326.59 63.3399 327.254C63.8868 326.59 64.4766 326.094 65.1094 325.766C65.7423 325.438 66.418 325.273 67.1368 325.273C68.0508 325.273 68.8243 325.461 69.4571 325.836C70.0899 326.203 70.5626 326.746 70.8751 327.465C71.1016 327.996 71.2149 328.855 71.2149 330.043V338H67.9219V330.887C67.9219 329.652 67.8087 328.855 67.5821 328.496C67.2774 328.027 66.8087 327.793 66.1758 327.793C65.7149 327.793 65.2813 327.934 64.8751 328.215C64.4688 328.496 64.1758 328.91 63.9962 329.457C63.8165 329.996 63.7266 330.852 63.7266 332.023V338H60.4337V331.18C60.4337 329.969 60.3751 329.188 60.2579 328.836C60.1407 328.484 59.9571 328.223 59.7071 328.051C59.4649 327.879 59.1329 327.793 58.711 327.793C58.2032 327.793 57.7462 327.93 57.3399 328.203C56.9337 328.477 56.6407 328.871 56.461 329.387C56.2891 329.902 56.2032 330.758 56.2032 331.953V338H52.9102V325.555ZM74.4141 325.555H77.4844V327.383C77.8829 326.758 78.4219 326.25 79.1016 325.859C79.7813 325.469 80.5352 325.273 81.3633 325.273C82.8087 325.273 84.0352 325.84 85.043 326.973C86.0508 328.105 86.5548 329.684 86.5548 331.707C86.5548 333.785 86.0469 335.402 85.0313 336.559C84.0157 337.707 82.7852 338.281 81.3399 338.281C80.6524 338.281 80.0274 338.145 79.4649 337.871C78.9102 337.598 78.3243 337.129 77.7071 336.465V342.734H74.4141V325.555ZM77.6719 331.566C77.6719 332.965 77.9493 334 78.504 334.672C79.0587 335.336 79.7344 335.668 80.5313 335.668C81.2969 335.668 81.9337 335.363 82.4415 334.754C82.9493 334.137 83.2032 333.129 83.2032 331.73C83.2032 330.426 82.9415 329.457 82.418 328.824C81.8946 328.191 81.2462 327.875 80.4727 327.875C79.668 327.875 79.0001 328.188 78.4688 328.812C77.9376 329.43 77.6719 330.348 77.6719 331.566ZM89.1798 338V320.82H92.4727V338H89.1798ZM103.066 334.039L106.348 334.59C105.926 335.793 105.258 336.711 104.344 337.344C103.438 337.969 102.301 338.281 100.934 338.281C98.7696 338.281 97.168 337.574 96.129 336.16C95.3087 335.027 94.8985 333.598 94.8985 331.871C94.8985 329.809 95.4376 328.195 96.5157 327.031C97.5938 325.859 98.9571 325.273 100.606 325.273C102.457 325.273 103.918 325.887 104.988 327.113C106.059 328.332 106.57 330.203 106.524 332.727H98.2735C98.2969 333.703 98.5626 334.465 99.0704 335.012C99.5782 335.551 100.211 335.82 100.969 335.82C101.484 335.82 101.918 335.68 102.27 335.398C102.621 335.117 102.887 334.664 103.066 334.039ZM103.254 330.711C103.231 329.758 102.984 329.035 102.516 328.543C102.047 328.043 101.477 327.793 100.805 327.793C100.086 327.793 99.4923 328.055 99.0235 328.578C98.5548 329.102 98.3243 329.812 98.3321 330.711H103.254ZM108.973 325.555H112.008V327.254C113.094 325.934 114.387 325.273 115.887 325.273C116.684 325.273 117.375 325.438 117.961 325.766C118.547 326.094 119.027 326.59 119.402 327.254C119.949 326.59 120.539 326.094 121.172 325.766C121.805 325.438 122.481 325.273 123.199 325.273C124.113 325.273 124.887 325.461 125.52 325.836C126.152 326.203 126.625 326.746 126.938 327.465C127.164 327.996 127.277 328.855 127.277 330.043V338H123.984V330.887C123.984 329.652 123.871 328.855 123.645 328.496C123.34 328.027 122.871 327.793 122.238 327.793C121.777 327.793 121.344 327.934 120.938 328.215C120.531 328.496 120.238 328.91 120.059 329.457C119.879 329.996 119.789 330.852 119.789 332.023V338H116.496V331.18C116.496 329.969 116.438 329.188 116.32 328.836C116.203 328.484 116.02 328.223 115.77 328.051C115.527 327.879 115.195 327.793 114.774 327.793C114.266 327.793 113.809 327.93 113.402 328.203C112.996 328.477 112.703 328.871 112.524 329.387C112.352 329.902 112.266 330.758 112.266 331.953V338H108.973V325.555ZM137.777 334.039L141.059 334.59C140.637 335.793 139.969 336.711 139.055 337.344C138.149 337.969 137.012 338.281 135.645 338.281C133.481 338.281 131.879 337.574 130.84 336.16C130.02 335.027 129.609 333.598 129.609 331.871C129.609 329.809 130.149 328.195 131.227 327.031C132.305 325.859 133.668 325.273 135.316 325.273C137.168 325.273 138.629 325.887 139.699 327.113C140.77 328.332 141.281 330.203 141.234 332.727H132.984C133.008 333.703 133.274 334.465 133.781 335.012C134.289 335.551 134.922 335.82 135.68 335.82C136.195 335.82 136.629 335.68 136.981 335.398C137.332 335.117 137.598 334.664 137.777 334.039ZM137.965 330.711C137.941 329.758 137.695 329.035 137.227 328.543C136.758 328.043 136.188 327.793 135.516 327.793C134.797 327.793 134.203 328.055 133.734 328.578C133.266 329.102 133.035 329.812 133.043 330.711H137.965ZM155.25 338H151.957V331.648C151.957 330.305 151.887 329.438 151.746 329.047C151.606 328.648 151.375 328.34 151.055 328.121C150.742 327.902 150.363 327.793 149.918 327.793C149.348 327.793 148.836 327.949 148.383 328.262C147.93 328.574 147.617 328.988 147.445 329.504C147.281 330.02 147.199 330.973 147.199 332.363V338H143.906V325.555H146.965V327.383C148.051 325.977 149.418 325.273 151.066 325.273C151.793 325.273 152.457 325.406 153.059 325.672C153.66 325.93 154.113 326.262 154.418 326.668C154.731 327.074 154.945 327.535 155.063 328.051C155.188 328.566 155.25 329.305 155.25 330.266V338ZM164.309 325.555V328.18H162.059V333.195C162.059 334.211 162.078 334.805 162.117 334.977C162.164 335.141 162.262 335.277 162.41 335.387C162.566 335.496 162.754 335.551 162.973 335.551C163.277 335.551 163.719 335.445 164.297 335.234L164.578 337.789C163.813 338.117 162.945 338.281 161.977 338.281C161.383 338.281 160.848 338.184 160.371 337.988C159.895 337.785 159.543 337.527 159.316 337.215C159.098 336.895 158.945 336.465 158.859 335.926C158.789 335.543 158.754 334.77 158.754 333.605V328.18H157.242V325.555H158.754V323.082L162.059 321.16V325.555H164.309ZM169.055 329.352L166.066 328.812C166.402 327.609 166.981 326.719 167.801 326.141C168.621 325.562 169.84 325.273 171.457 325.273C172.926 325.273 174.02 325.449 174.738 325.801C175.457 326.145 175.961 326.586 176.25 327.125C176.547 327.656 176.695 328.637 176.695 330.066L176.66 333.91C176.66 335.004 176.711 335.812 176.813 336.336C176.922 336.852 177.121 337.406 177.41 338H174.152C174.066 337.781 173.961 337.457 173.836 337.027C173.781 336.832 173.742 336.703 173.719 336.641C173.156 337.188 172.555 337.598 171.914 337.871C171.273 338.145 170.59 338.281 169.863 338.281C168.582 338.281 167.57 337.934 166.828 337.238C166.094 336.543 165.727 335.664 165.727 334.602C165.727 333.898 165.895 333.273 166.231 332.727C166.566 332.172 167.035 331.75 167.637 331.461C168.246 331.164 169.121 330.906 170.262 330.688C171.801 330.398 172.867 330.129 173.461 329.879V329.551C173.461 328.918 173.305 328.469 172.992 328.203C172.68 327.93 172.09 327.793 171.223 327.793C170.637 327.793 170.18 327.91 169.852 328.145C169.523 328.371 169.258 328.773 169.055 329.352ZM173.461 332.023C173.039 332.164 172.371 332.332 171.457 332.527C170.543 332.723 169.945 332.914 169.664 333.102C169.234 333.406 169.02 333.793 169.02 334.262C169.02 334.723 169.191 335.121 169.535 335.457C169.879 335.793 170.316 335.961 170.848 335.961C171.441 335.961 172.008 335.766 172.547 335.375C172.945 335.078 173.207 334.715 173.332 334.285C173.418 334.004 173.461 333.469 173.461 332.68V332.023ZM185.66 325.555V328.18H183.41V333.195C183.41 334.211 183.43 334.805 183.469 334.977C183.516 335.141 183.613 335.277 183.762 335.387C183.918 335.496 184.106 335.551 184.324 335.551C184.629 335.551 185.07 335.445 185.648 335.234L185.93 337.789C185.164 338.117 184.297 338.281 183.328 338.281C182.734 338.281 182.199 338.184 181.723 337.988C181.246 337.785 180.895 337.527 180.668 337.215C180.449 336.895 180.297 336.465 180.211 335.926C180.141 335.543 180.106 334.77 180.106 333.605V328.18H178.594V325.555H180.106V323.082L183.41 321.16V325.555H185.66ZM187.945 323.867V320.82H191.238V323.867H187.945ZM187.945 338V325.555H191.238V338H187.945ZM193.863 331.602C193.863 330.508 194.133 329.449 194.672 328.426C195.211 327.402 195.973 326.621 196.957 326.082C197.949 325.543 199.055 325.273 200.273 325.273C202.156 325.273 203.699 325.887 204.902 327.113C206.106 328.332 206.707 329.875 206.707 331.742C206.707 333.625 206.098 335.188 204.879 336.43C203.668 337.664 202.141 338.281 200.297 338.281C199.156 338.281 198.066 338.023 197.027 337.508C195.996 336.992 195.211 336.238 194.672 335.246C194.133 334.246 193.863 333.031 193.863 331.602ZM197.238 331.777C197.238 333.012 197.531 333.957 198.117 334.613C198.703 335.27 199.426 335.598 200.285 335.598C201.145 335.598 201.863 335.27 202.441 334.613C203.027 333.957 203.32 333.004 203.32 331.754C203.32 330.535 203.027 329.598 202.441 328.941C201.863 328.285 201.145 327.957 200.285 327.957C199.426 327.957 198.703 328.285 198.117 328.941C197.531 329.598 197.238 330.543 197.238 331.777ZM220.617 338H217.324V331.648C217.324 330.305 217.254 329.438 217.113 329.047C216.973 328.648 216.742 328.34 216.422 328.121C216.109 327.902 215.731 327.793 215.285 327.793C214.715 327.793 214.203 327.949 213.75 328.262C213.297 328.574 212.984 328.988 212.813 329.504C212.648 330.02 212.566 330.973 212.566 332.363V338H209.273V325.555H212.332V327.383C213.418 325.977 214.785 325.273 216.434 325.273C217.16 325.273 217.824 325.406 218.426 325.672C219.027 325.93 219.481 326.262 219.785 326.668C220.098 327.074 220.313 327.535 220.43 328.051C220.555 328.566 220.617 329.305 220.617 330.266V338Z"/>
<rect class="box specification" x="0.75" y="140.75" width="265.5" height="98.5" rx="19.25" fill="none" stroke="#292C33" stroke-width="1.5"/>
<path class="text specification" fill="black" d="M59.625 192.41L63 192.082C63.2031 193.215 63.6132 194.047 64.2304 194.578C64.8554 195.109 65.6953 195.375 66.75 195.375C67.8671 195.375 68.707 195.141 69.2695 194.672C69.8398 194.195 70.125 193.641 70.125 193.008C70.125 192.602 70.0039 192.258 69.7617 191.977C69.5273 191.688 69.1132 191.438 68.5195 191.227C68.1132 191.086 67.1875 190.836 65.7421 190.477C63.8828 190.016 62.5781 189.449 61.8281 188.777C60.7734 187.832 60.246 186.68 60.246 185.32C60.246 184.445 60.4921 183.629 60.9843 182.871C61.4843 182.105 62.1992 181.523 63.1289 181.125C64.0664 180.727 65.1953 180.527 66.5156 180.527C68.6718 180.527 70.2929 181 71.3789 181.945C72.4726 182.891 73.0468 184.152 73.1015 185.73L69.6328 185.883C69.4843 185 69.164 184.367 68.6718 183.984C68.1875 183.594 67.457 183.398 66.4804 183.398C65.4726 183.398 64.6835 183.605 64.1132 184.02C63.746 184.285 63.5625 184.641 63.5625 185.086C63.5625 185.492 63.7343 185.84 64.0781 186.129C64.5156 186.496 65.5781 186.879 67.2656 187.277C68.9531 187.676 70.1992 188.09 71.0039 188.52C71.8164 188.941 72.4492 189.523 72.9023 190.266C73.3632 191 73.5937 191.91 73.5937 192.996C73.5937 193.98 73.3203 194.902 72.7734 195.762C72.2265 196.621 71.4531 197.262 70.4531 197.684C69.4531 198.098 68.207 198.305 66.7148 198.305C64.5429 198.305 62.875 197.805 61.7109 196.805C60.5468 195.797 59.8515 194.332 59.625 192.41ZM76.3945 185.555H79.4648V187.383C79.8632 186.758 80.4023 186.25 81.082 185.859C81.7617 185.469 82.5156 185.273 83.3437 185.273C84.789 185.273 86.0156 185.84 87.0234 186.973C88.0312 188.105 88.5351 189.684 88.5351 191.707C88.5351 193.785 88.0273 195.402 87.0117 196.559C85.996 197.707 84.7656 198.281 83.3203 198.281C82.6328 198.281 82.0078 198.145 81.4453 197.871C80.8906 197.598 80.3046 197.129 79.6875 196.465V202.734H76.3945V185.555ZM79.6523 191.566C79.6523 192.965 79.9296 194 80.4843 194.672C81.039 195.336 81.7148 195.668 82.5117 195.668C83.2773 195.668 83.914 195.363 84.4218 194.754C84.9296 194.137 85.1835 193.129 85.1835 191.73C85.1835 190.426 84.9218 189.457 84.3984 188.824C83.875 188.191 83.2265 187.875 82.4531 187.875C81.6484 187.875 80.9804 188.188 80.4492 188.812C79.9179 189.43 79.6523 190.348 79.6523 191.566ZM98.3671 194.039L101.648 194.59C101.227 195.793 100.559 196.711 99.6445 197.344C98.7382 197.969 97.6015 198.281 96.2343 198.281C94.0703 198.281 92.4687 197.574 91.4296 196.16C90.6093 195.027 90.1992 193.598 90.1992 191.871C90.1992 189.809 90.7382 188.195 91.8164 187.031C92.8945 185.859 94.2578 185.273 95.9062 185.273C97.7578 185.273 99.2187 185.887 100.289 187.113C101.359 188.332 101.871 190.203 101.824 192.727H93.5742C93.5976 193.703 93.8632 194.465 94.371 195.012C94.8789 195.551 95.5117 195.82 96.2695 195.82C96.7851 195.82 97.2187 195.68 97.5703 195.398C97.9218 195.117 98.1875 194.664 98.3671 194.039ZM98.5546 190.711C98.5312 189.758 98.2851 189.035 97.8164 188.543C97.3476 188.043 96.7773 187.793 96.1054 187.793C95.3867 187.793 94.7929 188.055 94.3242 188.578C93.8554 189.102 93.625 189.812 93.6328 190.711H98.5546ZM115.371 189.234L112.125 189.82C112.016 189.172 111.766 188.684 111.375 188.355C110.992 188.027 110.492 187.863 109.875 187.863C109.055 187.863 108.398 188.148 107.906 188.719C107.422 189.281 107.18 190.227 107.18 191.555C107.18 193.031 107.426 194.074 107.918 194.684C108.418 195.293 109.086 195.598 109.922 195.598C110.547 195.598 111.059 195.422 111.457 195.07C111.855 194.711 112.137 194.098 112.301 193.23L115.535 193.781C115.199 195.266 114.555 196.387 113.602 197.145C112.648 197.902 111.371 198.281 109.769 198.281C107.949 198.281 106.496 197.707 105.41 196.559C104.332 195.41 103.793 193.82 103.793 191.789C103.793 189.734 104.336 188.137 105.422 186.996C106.508 185.848 107.977 185.273 109.828 185.273C111.344 185.273 112.547 185.602 113.437 186.258C114.336 186.906 114.98 187.898 115.371 189.234ZM117.879 183.867V180.82H121.172V183.867H117.879ZM117.879 198V185.555H121.172V198H117.879ZM123.117 185.555H124.945V184.617C124.945 183.57 125.055 182.789 125.273 182.273C125.5 181.758 125.91 181.34 126.504 181.02C127.105 180.691 127.863 180.527 128.777 180.527C129.715 180.527 130.633 180.668 131.531 180.949L131.086 183.246C130.562 183.121 130.059 183.059 129.574 183.059C129.098 183.059 128.754 183.172 128.543 183.398C128.34 183.617 128.238 184.043 128.238 184.676V185.555H130.699V188.145H128.238V198H124.945V188.145H123.117V185.555ZM132.551 183.867V180.82H135.844V183.867H132.551ZM132.551 198V185.555H135.844V198H132.551ZM150.082 189.234L146.836 189.82C146.727 189.172 146.477 188.684 146.086 188.355C145.703 188.027 145.203 187.863 144.586 187.863C143.766 187.863 143.109 188.148 142.617 188.719C142.133 189.281 141.891 190.227 141.891 191.555C141.891 193.031 142.137 194.074 142.629 194.684C143.129 195.293 143.797 195.598 144.633 195.598C145.258 195.598 145.769 195.422 146.168 195.07C146.566 194.711 146.848 194.098 147.012 193.23L150.246 193.781C149.91 195.266 149.266 196.387 148.312 197.145C147.359 197.902 146.082 198.281 144.48 198.281C142.66 198.281 141.207 197.707 140.121 196.559C139.043 195.41 138.504 193.82 138.504 191.789C138.504 189.734 139.047 188.137 140.133 186.996C141.219 185.848 142.687 185.273 144.539 185.273C146.055 185.273 147.258 185.602 148.148 186.258C149.047 186.906 149.691 187.898 150.082 189.234ZM155.051 189.352L152.062 188.812C152.398 187.609 152.977 186.719 153.797 186.141C154.617 185.562 155.836 185.273 157.453 185.273C158.922 185.273 160.016 185.449 160.734 185.801C161.453 186.145 161.957 186.586 162.246 187.125C162.543 187.656 162.691 188.637 162.691 190.066L162.656 193.91C162.656 195.004 162.707 195.812 162.809 196.336C162.918 196.852 163.117 197.406 163.406 198H160.148C160.062 197.781 159.957 197.457 159.832 197.027C159.777 196.832 159.738 196.703 159.715 196.641C159.152 197.188 158.551 197.598 157.91 197.871C157.269 198.145 156.586 198.281 155.859 198.281C154.578 198.281 153.566 197.934 152.824 197.238C152.09 196.543 151.723 195.664 151.723 194.602C151.723 193.898 151.891 193.273 152.227 192.727C152.562 192.172 153.031 191.75 153.633 191.461C154.242 191.164 155.117 190.906 156.258 190.688C157.797 190.398 158.863 190.129 159.457 189.879V189.551C159.457 188.918 159.301 188.469 158.988 188.203C158.676 187.93 158.086 187.793 157.219 187.793C156.633 187.793 156.176 187.91 155.848 188.145C155.519 188.371 155.254 188.773 155.051 189.352ZM159.457 192.023C159.035 192.164 158.367 192.332 157.453 192.527C156.539 192.723 155.941 192.914 155.66 193.102C155.23 193.406 155.016 193.793 155.016 194.262C155.016 194.723 155.187 195.121 155.531 195.457C155.875 195.793 156.312 195.961 156.844 195.961C157.437 195.961 158.004 195.766 158.543 195.375C158.941 195.078 159.203 194.715 159.328 194.285C159.414 194.004 159.457 193.469 159.457 192.68V192.023ZM171.656 185.555V188.18H169.406V193.195C169.406 194.211 169.426 194.805 169.465 194.977C169.512 195.141 169.609 195.277 169.758 195.387C169.914 195.496 170.102 195.551 170.32 195.551C170.625 195.551 171.066 195.445 171.644 195.234L171.926 197.789C171.16 198.117 170.293 198.281 169.324 198.281C168.73 198.281 168.195 198.184 167.719 197.988C167.242 197.785 166.891 197.527 166.664 197.215C166.445 196.895 166.293 196.465 166.207 195.926C166.137 195.543 166.102 194.77 166.102 193.605V188.18H164.59V185.555H166.102V183.082L169.406 181.16V185.555H171.656ZM173.941 183.867V180.82H177.234V183.867H173.941ZM173.941 198V185.555H177.234V198H173.941ZM179.859 191.602C179.859 190.508 180.129 189.449 180.668 188.426C181.207 187.402 181.969 186.621 182.953 186.082C183.945 185.543 185.051 185.273 186.269 185.273C188.152 185.273 189.695 185.887 190.898 187.113C192.102 188.332 192.703 189.875 192.703 191.742C192.703 193.625 192.094 195.188 190.875 196.43C189.664 197.664 188.137 198.281 186.293 198.281C185.152 198.281 184.062 198.023 183.023 197.508C181.992 196.992 181.207 196.238 180.668 195.246C180.129 194.246 179.859 193.031 179.859 191.602ZM183.234 191.777C183.234 193.012 183.527 193.957 184.113 194.613C184.699 195.27 185.422 195.598 186.281 195.598C187.141 195.598 187.859 195.27 188.437 194.613C189.023 193.957 189.316 193.004 189.316 191.754C189.316 190.535 189.023 189.598 188.437 188.941C187.859 188.285 187.141 187.957 186.281 187.957C185.422 187.957 184.699 188.285 184.113 188.941C183.527 189.598 183.234 190.543 183.234 191.777ZM206.613 198H203.32V191.648C203.32 190.305 203.25 189.438 203.109 189.047C202.969 188.648 202.738 188.34 202.418 188.121C202.105 187.902 201.727 187.793 201.281 187.793C200.711 187.793 200.199 187.949 199.746 188.262C199.293 188.574 198.98 188.988 198.809 189.504C198.644 190.02 198.562 190.973 198.562 192.363V198H195.269V185.555H198.328V187.383C199.414 185.977 200.781 185.273 202.43 185.273C203.156 185.273 203.82 185.406 204.422 185.672C205.023 185.93 205.477 186.262 205.781 186.668C206.094 187.074 206.309 187.535 206.426 188.051C206.551 188.566 206.613 189.305 206.613 190.266V198Z"/>
<rect class="box requirement" x="0.75" y="0.75" width="265.5" height="98.5" rx="17.95" fill="none" stroke="#292C33" stroke-width="1.5"/>
<path class="text requirement" fill="black" d="M61.8515 58V40.8203H69.1523C70.9882 40.8203 72.3203 40.9766 73.1484 41.2891C73.9843 41.5938 74.6523 42.1406 75.1523 42.9297C75.6523 43.7188 75.9023 44.6211 75.9023 45.6367C75.9023 46.9258 75.5234 47.9922 74.7656 48.8359C74.0078 49.6719 72.875 50.1992 71.3671 50.418C72.1171 50.8555 72.7343 51.3359 73.2187 51.8594C73.7109 52.3828 74.371 53.3125 75.1992 54.6484L77.2968 58H73.1484L70.6406 54.2617C69.75 52.9258 69.1406 52.0859 68.8125 51.7422C68.4843 51.3906 68.1367 51.1523 67.7695 51.0273C67.4023 50.8945 66.8203 50.8281 66.0234 50.8281H65.3203V58H61.8515ZM65.3203 48.0859H67.8867C69.5507 48.0859 70.5898 48.0156 71.0039 47.875C71.4179 47.7344 71.7421 47.4922 71.9765 47.1484C72.2109 46.8047 72.3281 46.375 72.3281 45.8594C72.3281 45.2812 72.1718 44.8164 71.8593 44.4648C71.5546 44.1055 71.121 43.8789 70.5585 43.7852C70.2773 43.7461 69.4335 43.7266 68.0273 43.7266H65.3203V48.0859ZM86.3671 54.0391L89.6484 54.5898C89.2265 55.793 88.5585 56.7109 87.6445 57.3438C86.7382 57.9688 85.6015 58.2812 84.2343 58.2812C82.0703 58.2812 80.4687 57.5742 79.4296 56.1602C78.6093 55.0273 78.1992 53.5977 78.1992 51.8711C78.1992 49.8086 78.7382 48.1953 79.8164 47.0312C80.8945 45.8594 82.2578 45.2734 83.9062 45.2734C85.7578 45.2734 87.2187 45.8867 88.289 47.1133C89.3593 48.332 89.871 50.2031 89.8242 52.7266H81.5742C81.5976 53.7031 81.8632 54.4648 82.371 55.0117C82.8789 55.5508 83.5117 55.8203 84.2695 55.8203C84.7851 55.8203 85.2187 55.6797 85.5703 55.3984C85.9218 55.1172 86.1875 54.6641 86.3671 54.0391ZM86.5546 50.7109C86.5312 49.7578 86.2851 49.0352 85.8164 48.543C85.3476 48.043 84.7773 47.793 84.1054 47.793C83.3867 47.793 82.7929 48.0547 82.3242 48.5781C81.8554 49.1016 81.625 49.8125 81.6328 50.7109H86.5546ZM100.652 62.7344V56.4766C100.223 57.0312 99.6875 57.4727 99.0468 57.8008C98.4062 58.1211 97.7148 58.2812 96.9726 58.2812C95.5585 58.2812 94.3945 57.75 93.4804 56.6875C92.4023 55.4453 91.8632 53.7617 91.8632 51.6367C91.8632 49.6367 92.3671 48.0781 93.375 46.9609C94.3906 45.8359 95.6484 45.2734 97.1484 45.2734C97.9765 45.2734 98.6914 45.4492 99.2929 45.8008C99.9023 46.1523 100.441 46.6836 100.91 47.3945V45.5547H103.945V62.7344H100.652ZM100.758 51.625C100.758 50.3516 100.496 49.4062 99.9726 48.7891C99.457 48.1641 98.8085 47.8516 98.0273 47.8516C97.2304 47.8516 96.5625 48.168 96.0234 48.8008C95.4921 49.4336 95.2265 50.4375 95.2265 51.8125C95.2265 53.1797 95.4843 54.168 96 54.7773C96.5156 55.3789 97.1523 55.6797 97.9101 55.6797C98.6679 55.6797 99.332 55.3398 99.9023 54.6602C100.473 53.9805 100.758 52.9688 100.758 51.625ZM115.383 58V56.1367C114.93 56.8008 114.332 57.3242 113.59 57.707C112.855 58.0898 112.078 58.2812 111.258 58.2812C110.422 58.2812 109.672 58.0977 109.008 57.7305C108.344 57.3633 107.863 56.8477 107.566 56.1836C107.269 55.5195 107.121 54.6016 107.121 53.4297V45.5547H110.414V51.2734C110.414 53.0234 110.473 54.0977 110.59 54.4961C110.715 54.8867 110.937 55.1992 111.258 55.4336C111.578 55.6602 111.984 55.7734 112.477 55.7734C113.039 55.7734 113.543 55.6211 113.988 55.3164C114.434 55.0039 114.738 54.6211 114.902 54.168C115.066 53.707 115.148 52.5859 115.148 50.8047V45.5547H118.441V58H115.383ZM121.863 43.8672V40.8203H125.156V43.8672H121.863ZM121.863 58V45.5547H125.156V58H121.863ZM131.695 58H128.402V45.5547H131.461V47.3242C131.984 46.4883 132.453 45.9375 132.867 45.6719C133.289 45.4062 133.766 45.2734 134.297 45.2734C135.047 45.2734 135.769 45.4805 136.465 45.8945L135.445 48.7656C134.891 48.4062 134.375 48.2266 133.898 48.2266C133.437 48.2266 133.047 48.3555 132.727 48.6133C132.406 48.8633 132.152 49.3203 131.965 49.9844C131.785 50.6484 131.695 52.0391 131.695 54.1562V58ZM145.102 54.0391L148.383 54.5898C147.961 55.793 147.293 56.7109 146.379 57.3438C145.473 57.9688 144.336 58.2812 142.969 58.2812C140.805 58.2812 139.203 57.5742 138.164 56.1602C137.344 55.0273 136.934 53.5977 136.934 51.8711C136.934 49.8086 137.473 48.1953 138.551 47.0312C139.629 45.8594 140.992 45.2734 142.641 45.2734C144.492 45.2734 145.953 45.8867 147.023 47.1133C148.094 48.332 148.605 50.2031 148.559 52.7266H140.309C140.332 53.7031 140.598 54.4648 141.105 55.0117C141.613 55.5508 142.246 55.8203 143.004 55.8203C143.519 55.8203 143.953 55.6797 144.305 55.3984C144.656 55.1172 144.922 54.6641 145.102 54.0391ZM145.289 50.7109C145.266 49.7578 145.019 49.0352 144.551 48.543C144.082 48.043 143.512 47.793 142.84 47.793C142.121 47.793 141.527 48.0547 141.059 48.5781C140.59 49.1016 140.359 49.8125 140.367 50.7109H145.289ZM151.008 45.5547H154.043V47.2539C155.129 45.9336 156.422 45.2734 157.922 45.2734C158.719 45.2734 159.41 45.4375 159.996 45.7656C160.582 46.0938 161.062 46.5898 161.437 47.2539C161.984 46.5898 162.574 46.0938 163.207 45.7656C163.84 45.4375 164.516 45.2734 165.234 45.2734C166.148 45.2734 166.922 45.4609 167.555 45.8359C168.187 46.2031 168.66 46.7461 168.973 47.4648C169.199 47.9961 169.312 48.8555 169.312 50.043V58H166.019V50.8867C166.019 49.6523 165.906 48.8555 165.68 48.4961C165.375 48.0273 164.906 47.793 164.273 47.793C163.812 47.793 163.379 47.9336 162.973 48.2148C162.566 48.4961 162.273 48.9102 162.094 49.457C161.914 49.9961 161.824 50.8516 161.824 52.0234V58H158.531V51.1797C158.531 49.9688 158.473 49.1875 158.355 48.8359C158.238 48.4844 158.055 48.2227 157.805 48.0508C157.562 47.8789 157.23 47.793 156.809 47.793C156.301 47.793 155.844 47.9297 155.437 48.2031C155.031 48.4766 154.738 48.8711 154.559 49.3867C154.387 49.9023 154.301 50.7578 154.301 51.9531V58H151.008V45.5547ZM179.812 54.0391L183.094 54.5898C182.672 55.793 182.004 56.7109 181.09 57.3438C180.184 57.9688 179.047 58.2812 177.68 58.2812C175.516 58.2812 173.914 57.5742 172.875 56.1602C172.055 55.0273 171.644 53.5977 171.644 51.8711C171.644 49.8086 172.184 48.1953 173.262 47.0312C174.34 45.8594 175.703 45.2734 177.352 45.2734C179.203 45.2734 180.664 45.8867 181.734 47.1133C182.805 48.332 183.316 50.2031 183.269 52.7266H175.019C175.043 53.7031 175.309 54.4648 175.816 55.0117C176.324 55.5508 176.957 55.8203 177.715 55.8203C178.23 55.8203 178.664 55.6797 179.016 55.3984C179.367 55.1172 179.633 54.6641 179.812 54.0391ZM180 50.7109C179.977 49.7578 179.73 49.0352 179.262 48.543C178.793 48.043 178.223 47.793 177.551 47.793C176.832 47.793 176.238 48.0547 175.769 48.5781C175.301 49.1016 175.07 49.8125 175.078 50.7109H180ZM197.285 58H193.992V51.6484C193.992 50.3047 193.922 49.4375 193.781 49.0469C193.641 48.6484 193.41 48.3398 193.09 48.1211C192.777 47.9023 192.398 47.793 191.953 47.793C191.383 47.793 190.871 47.9492 190.418 48.2617C189.965 48.5742 189.652 48.9883 189.48 49.5039C189.316 50.0195 189.234 50.9727 189.234 52.3633V58H185.941V45.5547H189V47.3828C190.086 45.9766 191.453 45.2734 193.102 45.2734C193.828 45.2734 194.492 45.4062 195.094 45.6719C195.695 45.9297 196.148 46.2617 196.453 46.668C196.766 47.0742 196.98 47.5352 197.098 48.0508C197.223 48.5664 197.285 49.3047 197.285 50.2656V58ZM206.344 45.5547V48.1797H204.094V53.1953C204.094 54.2109 204.113 54.8047 204.152 54.9766C204.199 55.1406 204.297 55.2773 204.445 55.3867C204.602 55.4961 204.789 55.5508 205.008 55.5508C205.312 55.5508 205.754 55.4453 206.332 55.2344L206.613 57.7891C205.848 58.1172 204.98 58.2812 204.012 58.2812C203.418 58.2812 202.883 58.1836 202.406 57.9883C201.93 57.7852 201.578 57.5273 201.352 57.2148C201.133 56.8945 200.98 56.4648 200.894 55.9258C200.824 55.543 200.789 54.7695 200.789 53.6055V48.1797H199.277V45.5547H200.789V43.082L204.094 41.1602V45.5547H206.344Z"/>
</svg>
