<?xml version="1.0" encoding="UTF-8" standalone="no"?>
<!-- Generator: Adobe Illustrator 25.2.0, SVG Export Plug-In . SVG Version: 6.00 Build 0)  -->

<svg
   version="1.1"
   id="Layer_1"
   x="0px"
   y="0px"
   viewBox="0 0 640.00002 640"
   xml:space="preserve"
   sodipodi:docname="sphinx-needs-logo-favicon.svg"
   width="640"
   height="640"
   inkscape:version="1.1.2 (0a00cf5339, 2022-02-04, custom)"
   inkscape:export-filename="/useblocks/06_projects_internal/06_sphinx_needs/Images/sphinx-needs logo.png"
   inkscape:export-xdpi="90"
   inkscape:export-ydpi="90"
   xmlns:inkscape="http://www.inkscape.org/namespaces/inkscape"
   xmlns:sodipodi="http://sodipodi.sourceforge.net/DTD/sodipodi-0.dtd"
   xmlns="http://www.w3.org/2000/svg"
   xmlns:svg="http://www.w3.org/2000/svg"><defs
   id="defs43" /><sodipodi:namedview
   id="namedview41"
   pagecolor="#ffffff"
   bordercolor="#666666"
   borderopacity="1.0"
   inkscape:pageshadow="2"
   inkscape:pageopacity="0.0"
   inkscape:pagecheckerboard="0"
   showgrid="false"
   fit-margin-top="0"
   fit-margin-left="0"
   fit-margin-right="0"
   fit-margin-bottom="0"
   inkscape:zoom="0.6171875"
   inkscape:cx="602.73418"
   inkscape:cy="463.39241"
   inkscape:window-width="2560"
   inkscape:window-height="1375"
   inkscape:window-x="0"
   inkscape:window-y="0"
   inkscape:window-maximized="1"
   inkscape:current-layer="Layer_1" />
<style
   type="text/css"
   id="style2">
	.st0{fill:#00A9DD;}
	.st1{fill:#0094D4;}
</style>

<g
   id="g12"
   transform="matrix(0.93413839,0,0,0.93413839,-575.31198,-62.177703)"
   style="stroke:#000000">
	<path
   class="st0"
   d="m 1159.96,335.36 h 113.5 V 488.94 H 1119.88 V 375.44 L 1097.94,353.5 V 496.66 L 986.96,607.64 c -18.77,-12.21 -44.21,-10.09 -60.66,6.36 -18.89,18.89 -18.89,49.63 0,68.52 18.89,18.89 49.63,18.89 68.52,0 16.45,-16.45 18.57,-41.89 6.36,-60.66 L 1112.16,510.88 H 1295.4 V 313.42 H 1138.02 Z M 980.6,668.3 c -11.05,11.05 -29.03,11.05 -40.08,0 -11.05,-11.05 -11.05,-29.03 0,-40.08 11.05,-11.05 29.03,-11.05 40.08,0 11.05,11.05 11.05,29.03 0,40.08 z"
   id="path4"
   style="fill:#2a639a;fill-opacity:1;stroke:#000000" />
	<path
   class="st1"
   d="m 882.65,98.6 h 153.58 v 153.58 h -113.5 l -21.94,21.94 h 143.64 l 111.63,111.63 c -12.21,18.77 -10.09,44.21 6.36,60.66 18.89,18.89 49.63,18.89 68.52,0 18.89,-18.89 18.89,-49.63 0,-68.52 -16.45,-16.45 -41.89,-18.57 -60.66,-6.36 l -112.1,-112.1 V 76.66 H 860.71 v 157.38 l 21.94,-21.94 z m 334.06,293.51 c 11.05,11.05 11.05,29.03 0,40.08 -11.05,11.05 -29.03,11.05 -40.08,0 -11.05,-11.05 -11.05,-29.03 0,-40.08 11.06,-11.05 29.03,-11.05 40.08,0 z"
   id="path6"
   style="fill:#4895e2;fill-opacity:1;stroke:#000000" />
	<path
   class="st0"
   d="M 624.59,510.23 H 781.97 L 760.03,488.29 H 646.53 V 334.71 h 153.58 v 113.5 l 21.94,21.94 V 326.99 L 933.03,216.01 c 18.77,12.21 44.21,10.09 60.66,-6.36 18.89,-18.89 18.89,-49.63 0,-68.52 -18.89,-18.89 -49.63,-18.89 -68.52,0 -16.45,16.45 -18.57,41.89 -6.36,60.66 L 807.84,312.77 H 624.59 Z M 939.4,155.35 c 11.05,-11.05 29.03,-11.05 40.08,0 11.05,11.05 11.05,29.03 0,40.08 -11.05,11.05 -29.03,11.05 -40.08,0 -11.05,-11.05 -11.05,-29.03 0,-40.08 z"
   id="path8"
   style="fill:#2a639a;fill-opacity:1;stroke:#000000" />
	<path
   class="st1"
   d="M 1037.35,725.05 H 883.77 V 571.47 h 113.5 l 21.94,-21.94 H 875.57 L 763.95,437.91 c 12.21,-18.77 10.09,-44.21 -6.36,-60.66 -18.89,-18.89 -49.63,-18.89 -68.52,0 -18.89,18.89 -18.89,49.63 0,68.52 16.45,16.45 41.89,18.57 60.66,6.36 l 112.1,112.1 V 747 h 197.46 V 589.62 l -21.94,21.94 z M 703.29,431.54 c -11.05,-11.05 -11.05,-29.03 0,-40.08 11.05,-11.05 29.03,-11.05 40.08,0 11.05,11.05 11.05,29.03 0,40.08 -11.06,11.05 -29.03,11.05 -40.08,0 z"
   id="path10"
   style="fill:#4895e2;fill-opacity:1;stroke:#000000" />
</g>
</svg>
