<svg width="61" height="60" viewBox="0 0 61 60" fill="none" xmlns="http://www.w3.org/2000/svg">
<path d="M38.0534 20L46.9814 28.8539C46.9814 28.8539 46.9588 28.9139 46.9512 28.9438C46.8455 29.2734 46.7926 29.633 46.7926 30C46.7926 31.9925 48.4166 33.603 50.4257 33.603C52.4349 33.603 54.0589 31.9925 54.0589 30C54.0589 28.0075 52.4349 26.397 50.4257 26.397C50.0556 26.397 49.6931 26.4494 49.3607 26.5543C49.3305 26.5618 49.3003 26.5768 49.2701 26.5843L40.3421 17.7303V0H20.1748V13.206L23.4001 10.0075V3.1985H37.1168V19.0562L38.061 20H38.0534Z" fill="#E4FF3E"/>
<path d="M20.1673 22.2621L29.0953 13.4081C29.0953 13.4081 29.1557 13.4306 29.1859 13.4381C29.5182 13.543 29.8808 13.5954 30.2509 13.5954C32.2601 13.5954 33.8841 11.9849 33.8841 9.9924C33.8841 7.99989 32.2601 6.3894 30.2509 6.3894C28.2417 6.3894 26.6178 7.99989 26.6178 9.9924C26.6178 10.3594 26.6707 10.719 26.7764 11.0486C26.784 11.0785 26.7991 11.1085 26.8066 11.1385L17.8786 19.9924H0V39.9924H13.3164L10.0912 36.7939H3.22525V23.1909H19.2382L20.1673 22.2546V22.2621Z" fill="#E4FF3E"/>
<path d="M23.4152 40.9513L13.5279 31.146C13.5279 31.146 13.5506 31.0861 13.5581 31.0561C13.6639 30.7266 13.7168 30.367 13.7168 30C13.7168 28.0075 12.0928 26.397 10.0836 26.397C8.07446 26.397 6.4505 28.0075 6.4505 30C6.4505 31.9925 8.07446 33.603 10.0836 33.603C10.4537 33.603 10.8163 33.5505 11.1486 33.4457C11.1789 33.4382 11.2091 33.4232 11.2393 33.4157L20.1673 42.2696V60.0075H40.3346V46.8015L37.1093 50V56.809H23.3925V43.206L23.4076 40.9588L23.4152 40.9513Z" fill="#E4FF3E"/>
<path d="M40.3346 37.7379L31.4066 46.5918C31.4066 46.5918 31.3462 46.5694 31.3159 46.5619C30.9836 46.457 30.621 46.4046 30.2509 46.4046C28.2418 46.4046 26.6178 48.0151 26.6178 50.0076C26.6178 52.0001 28.2418 53.6106 30.2509 53.6106C32.2601 53.6106 33.8841 52.0001 33.8841 50.0076C33.8841 49.6405 33.8312 49.281 33.7254 48.9514C33.7179 48.9214 33.7028 48.8915 33.6952 48.8615L42.6232 40.0076H60.5094V20.0076H47.193L50.4182 23.2061H57.2841V36.8091H41.2863L40.3421 37.7454L40.3346 37.7379Z" fill="#E4FF3E"/>
</svg>
