<?xml version="1.0" encoding="UTF-8" standalone="no"?>
<!-- Generator: Adobe Illustrator 25.2.0, SVG Export Plug-In . SVG Version: 6.00 Build 0)  -->

<svg
   version="1.1"
   id="Layer_1"
   x="0px"
   y="0px"
   viewBox="0 0 1292.34 926.69"
   xml:space="preserve"
   sodipodi:docname="sphinx-needs logo.svg"
   width="1292.34"
   height="926.69"
   inkscape:version="1.1 (c4e8f9ed74, 2021-05-24)"
   inkscape:export-filename="/useblocks/06_projects_internal/06_sphinx_needs/Images/sphinx-needs logo.png"
   inkscape:export-xdpi="90"
   inkscape:export-ydpi="90"
   xmlns:inkscape="http://www.inkscape.org/namespaces/inkscape"
   xmlns:sodipodi="http://sodipodi.sourceforge.net/DTD/sodipodi-0.dtd"
   xmlns="http://www.w3.org/2000/svg"
   xmlns:svg="http://www.w3.org/2000/svg"><defs
   id="defs43" /><sodipodi:namedview
   id="namedview41"
   pagecolor="#ffffff"
   bordercolor="#666666"
   borderopacity="1.0"
   inkscape:pageshadow="2"
   inkscape:pageopacity="0.0"
   inkscape:pagecheckerboard="0"
   showgrid="false"
   fit-margin-top="0"
   fit-margin-left="0"
   fit-margin-right="0"
   fit-margin-bottom="0"
   inkscape:zoom="0.6171875"
   inkscape:cx="601.92405"
   inkscape:cy="464.20253"
   inkscape:window-width="2560"
   inkscape:window-height="1388"
   inkscape:window-x="1920"
   inkscape:window-y="0"
   inkscape:window-maximized="1"
   inkscape:current-layer="Layer_1" />
<style
   type="text/css"
   id="style2">
	.st0{fill:#00A9DD;}
	.st1{fill:#0094D4;}
</style>
<g
   id="g12"
   transform="translate(-313.83,-76.66)"
   style="stroke:#000000">
	<path
   class="st0"
   d="m 1159.96,335.36 h 113.5 V 488.94 H 1119.88 V 375.44 L 1097.94,353.5 V 496.66 L 986.96,607.64 c -18.77,-12.21 -44.21,-10.09 -60.66,6.36 -18.89,18.89 -18.89,49.63 0,68.52 18.89,18.89 49.63,18.89 68.52,0 16.45,-16.45 18.57,-41.89 6.36,-60.66 L 1112.16,510.88 H 1295.4 V 313.42 H 1138.02 Z M 980.6,668.3 c -11.05,11.05 -29.03,11.05 -40.08,0 -11.05,-11.05 -11.05,-29.03 0,-40.08 11.05,-11.05 29.03,-11.05 40.08,0 11.05,11.05 11.05,29.03 0,40.08 z"
   id="path4"
   style="fill:#2a639a;fill-opacity:1;stroke:#000000" />
	<path
   class="st1"
   d="m 882.65,98.6 h 153.58 v 153.58 h -113.5 l -21.94,21.94 h 143.64 l 111.63,111.63 c -12.21,18.77 -10.09,44.21 6.36,60.66 18.89,18.89 49.63,18.89 68.52,0 18.89,-18.89 18.89,-49.63 0,-68.52 -16.45,-16.45 -41.89,-18.57 -60.66,-6.36 l -112.1,-112.1 V 76.66 H 860.71 v 157.38 l 21.94,-21.94 z m 334.06,293.51 c 11.05,11.05 11.05,29.03 0,40.08 -11.05,11.05 -29.03,11.05 -40.08,0 -11.05,-11.05 -11.05,-29.03 0,-40.08 11.06,-11.05 29.03,-11.05 40.08,0 z"
   id="path6"
   style="fill:#4895e2;fill-opacity:1;stroke:#000000" />
	<path
   class="st0"
   d="M 624.59,510.23 H 781.97 L 760.03,488.29 H 646.53 V 334.71 h 153.58 v 113.5 l 21.94,21.94 V 326.99 L 933.03,216.01 c 18.77,12.21 44.21,10.09 60.66,-6.36 18.89,-18.89 18.89,-49.63 0,-68.52 -18.89,-18.89 -49.63,-18.89 -68.52,0 -16.45,16.45 -18.57,41.89 -6.36,60.66 L 807.84,312.77 H 624.59 Z M 939.4,155.35 c 11.05,-11.05 29.03,-11.05 40.08,0 11.05,11.05 11.05,29.03 0,40.08 -11.05,11.05 -29.03,11.05 -40.08,0 -11.05,-11.05 -11.05,-29.03 0,-40.08 z"
   id="path8"
   style="fill:#2a639a;fill-opacity:1;stroke:#000000" />
	<path
   class="st1"
   d="M 1037.35,725.05 H 883.77 V 571.47 h 113.5 l 21.94,-21.94 H 875.57 L 763.95,437.91 c 12.21,-18.77 10.09,-44.21 -6.36,-60.66 -18.89,-18.89 -49.63,-18.89 -68.52,0 -18.89,18.89 -18.89,49.63 0,68.52 16.45,16.45 41.89,18.57 60.66,6.36 l 112.1,112.1 V 747 h 197.46 V 589.62 l -21.94,21.94 z M 703.29,431.54 c -11.05,-11.05 -11.05,-29.03 0,-40.08 11.05,-11.05 29.03,-11.05 40.08,0 11.05,11.05 11.05,29.03 0,40.08 -11.06,11.05 -29.03,11.05 -40.08,0 z"
   id="path10"
   style="fill:#4895e2;fill-opacity:1;stroke:#000000" />
</g>
<g
   id="g38"
   transform="translate(-313.83,-76.66)"
   style="stroke:#000000">
	<path
   class="st1"
   d="m 404.9,932.94 c 0,11.88 -6.04,17.82 -18.1,17.82 h -54.87 c -12.07,0 -18.1,-5.94 -18.1,-17.82 v -30.93 h 31.21 v 24.23 h 28.65 v -22.8 l -50.02,-29.5 c -6.56,-3.89 -9.83,-9.12 -9.83,-15.68 v -33.63 c 0,-11.87 6.13,-17.81 18.38,-17.81 h 54.3 c 12.06,0 18.1,5.94 18.1,17.81 v 28.93 h -30.93 v -22.23 h -28.65 v 20.81 l 49.88,29.22 c 6.65,3.8 9.98,9.12 9.98,15.96 z"
   id="path14"
   style="fill:#4895e2;fill-opacity:1;stroke:#000000" />
	<path
   class="st1"
   d="m 523.76,921.82 c 0,11.69 -4.18,19.86 -12.54,24.51 -6.08,3.33 -15.3,4.99 -27.65,4.99 -2.85,0 -6.87,-0.09 -12.04,-0.28 -5.18,-0.19 -8.91,-0.28 -11.19,-0.28 v 52.59 H 427.7 V 806.81 h 32.64 v 5.27 c 7.6,-1.14 15.2,-2.33 22.8,-3.56 9.59,-1.52 17.19,-2.28 22.8,-2.28 11.87,0 17.81,5.84 17.81,17.53 v 98.05 z m -32.78,-8.98 v -78.81 l -30.64,0.57 v 89.07 h 20.24 c 6.93,0 10.4,-3.6 10.4,-10.83 z"
   id="path16"
   style="fill:#4895e2;fill-opacity:1;stroke:#000000" />
	<path
   class="st1"
   d="M 642.9,950.75 H 610.12 V 834.03 l -30.64,0.57 V 950.75 H 546.84 V 727.71 h 32.64 v 84.37 c 7.6,-1.14 15.2,-2.33 22.8,-3.56 9.59,-1.52 17.19,-2.28 22.8,-2.28 11.87,0 17.81,5.84 17.81,17.53 v 126.98 z"
   id="path18"
   style="fill:#4895e2;fill-opacity:1;stroke:#000000" />
	<path
   class="st1"
   d="m 699.48,786.15 h -32.64 v -33.63 h 32.64 z m -0.29,164.6 H 667.12 V 806.81 h 32.07 z"
   id="path20"
   style="fill:#4895e2;fill-opacity:1;stroke:#000000" />
	<path
   class="st1"
   d="M 819.48,950.75 H 786.7 V 834.03 l -30.64,0.57 V 950.75 H 723.42 V 806.81 h 32.64 v 5.27 c 7.6,-1.23 15.15,-2.42 22.66,-3.56 9.31,-1.52 16.96,-2.28 22.95,-2.28 11.87,0 17.81,5.84 17.81,17.53 z"
   id="path22"
   style="fill:#4895e2;fill-opacity:1;stroke:#000000" />
	<path
   class="st1"
   d="m 939.19,950.75 h -35.34 l -17.24,-45.18 -17.81,45.18 h -34.77 v -0.57 l 34.77,-73.54 -31.5,-69.83 h 33.63 l 15.68,41.76 16.39,-41.76 h 32.92 v 0.57 l -31.5,68.98 z"
   id="path24"
   style="fill:#4895e2;fill-opacity:1;stroke:#000000" />
	<path
   class="st0"
   d="M 1020.85,893.39 H 952.87 V 863.6 h 67.98 z"
   id="path26"
   style="fill:#2a639a;fill-opacity:1;stroke:#000000" />
	<path
   class="st0"
   d="m 1139.72,950.75 h -32.78 V 834.03 l -30.64,0.57 v 116.15 h -32.64 V 806.81 h 32.64 v 5.27 c 7.6,-1.23 15.15,-2.42 22.66,-3.56 9.31,-1.52 16.96,-2.28 22.95,-2.28 11.87,0 17.82,5.84 17.82,17.53 v 126.98 z"
   id="path28"
   style="fill:#2a639a;fill-opacity:1;stroke:#000000" />
	<path
   class="st0"
   d="m 1256.15,932.94 c 0,11.88 -6.13,17.82 -18.38,17.82 h -56.29 c -12.26,0 -18.38,-5.94 -18.38,-17.82 V 824.62 c 0,-11.87 6.13,-17.81 18.38,-17.81 h 56.29 c 12.26,0 18.38,5.94 18.38,17.81 v 52.87 l -8.98,8.98 h -52.87 v 40.33 h 30.64 v -23.94 h 31.21 z m -31.21,-67.7 v -34.49 h -30.64 v 34.49 z"
   id="path30"
   style="fill:#2a639a;fill-opacity:1;stroke:#000000" />
	<path
   class="st0"
   d="m 1372.87,932.94 c 0,11.88 -6.13,17.82 -18.38,17.82 h -56.29 c -12.26,0 -18.38,-5.94 -18.38,-17.82 V 824.62 c 0,-11.87 6.13,-17.81 18.38,-17.81 h 56.29 c 12.26,0 18.38,5.94 18.38,17.81 v 52.87 l -8.98,8.98 h -52.87 v 40.33 h 30.64 v -23.94 h 31.21 z m -31.21,-67.7 v -34.49 h -30.64 v 34.49 z"
   id="path32"
   style="fill:#2a639a;fill-opacity:1;stroke:#000000" />
	<path
   class="st0"
   d="m 1492.02,950.75 h -32.49 v -4.99 c -22.04,3.9 -34.4,5.84 -37.05,5.84 -8.17,0 -14.58,-2.4 -19.24,-7.2 -4.66,-4.8 -6.98,-11.33 -6.98,-19.6 v -89.07 c 0,-11.69 4.18,-19.81 12.54,-24.37 6.08,-3.42 15.3,-5.13 27.65,-5.13 2.75,0 6.75,0.1 11.97,0.28 5.22,0.19 8.93,0.28 11.12,0.28 v -79.1 h 32.49 v 223.06 z m -32.5,-28.07 v -88.65 h -20.09 c -7.22,0 -10.83,3.61 -10.83,10.83 v 68.83 c 0,7.03 3.42,10.55 10.26,10.55 1.61,0.01 8.5,-0.52 20.66,-1.56 z"
   id="path34"
   style="fill:#2a639a;fill-opacity:1;stroke:#000000" />
	<path
   class="st0"
   d="m 1606.17,932.94 c 0,11.88 -6.03,17.82 -18.1,17.82 h -54.87 c -12.07,0 -18.1,-5.94 -18.1,-17.82 v -30.93 h 31.21 v 24.23 h 28.65 v -22.8 l -50.02,-29.5 c -6.56,-3.89 -9.83,-9.12 -9.83,-15.68 v -33.63 c 0,-11.87 6.13,-17.81 18.38,-17.81 h 54.3 c 12.06,0 18.1,5.94 18.1,17.81 v 28.93 h -30.93 v -22.23 h -28.65 v 20.81 l 49.88,29.22 c 6.65,3.8 9.98,9.12 9.98,15.96 z"
   id="path36"
   style="fill:#2a639a;fill-opacity:1;stroke:#000000" />
</g>
</svg>
