<svg width="191" height="60" viewBox="0 0 191 60" fill="none" xmlns="http://www.w3.org/2000/svg">
<g clip-path="url(#clip0_261_34)">
<path d="M92.913 16.4344C92.913 15.2584 91.9689 14.9888 87.8674 14.9888C84.0681 14.9888 82.9729 15.3783 82.9729 16.6741C82.9729 17.8801 83.6451 18.0899 87.6559 18.0899H89.8766C93.5853 18.0899 95.0128 18.2697 96.1987 18.9363C97.2335 19.5056 97.7169 20.5918 97.7169 22.3146C97.7169 24.9064 96.8332 26.0824 94.4312 26.6292C93.2151 26.8989 90.9945 27.0187 87.2556 27.0187C82.3611 27.0187 80.654 26.6891 79.5966 25.4831C78.8941 24.7266 78.6524 23.8876 78.6524 22.3745V22.2247H82.8445V22.3745C82.9351 24.1573 83.4865 24.3371 88.653 24.367C90.9643 24.3271 92.3843 24.1873 92.913 23.9476C93.336 23.7378 93.6155 23.221 93.6155 22.6517C93.6155 21.2659 92.7922 20.9363 89.2043 20.9962C87.807 21.0262 84.4005 20.9663 83.6074 20.9363C80.08 20.6966 78.8337 19.6404 78.8337 16.8989C78.8337 14.4569 79.7174 13.2809 81.9985 12.7715C83.275 12.5019 85.2842 12.3521 88.1696 12.3521C92.5807 12.3521 94.2802 12.5618 95.5567 13.2584C96.5613 13.7977 97.0749 14.8839 97.0749 16.4869V16.5768H92.9055V16.4569L92.913 16.4344Z" fill="black"/>
<path d="M104.099 12.6066V15.2283C104.802 12.9362 106.199 12.3369 110.671 12.3369C115.142 12.3369 117.272 12.8463 118.488 14.1422C119.372 15.1084 119.765 16.7639 119.765 19.6628C119.765 25.6328 118.126 27.0186 111.101 27.0186C106.509 27.0186 104.719 26.3219 104.107 24.3369V32.8388H100.096V12.6066H104.107H104.099ZM109.273 15.3482C104.832 15.3482 104.107 15.9774 104.107 19.8425C104.107 21.8051 104.5 22.9212 105.353 23.3407C105.897 23.6403 106.6 23.8201 107.362 23.8201L110.709 23.9399C114.878 23.9399 115.633 23.2732 115.633 19.5354C115.633 17.7526 115.361 16.7938 114.689 16.1571C114.327 15.8276 113.594 15.5504 112.801 15.4605L109.273 15.3407V15.3482Z" fill="black"/>
<path d="M122.28 6.57666H126.291V15.2883C127.145 12.9961 128.663 12.337 133.013 12.337C138.822 12.337 140.771 13.9025 140.771 18.6366V26.7489H136.76V19.1235C136.76 17.468 136.579 16.8014 135.967 16.292C135.295 15.7452 134.048 15.4755 132.047 15.4755C127.666 15.4755 126.299 16.4119 126.299 19.4231V26.7489H122.288V6.57666H122.28Z" fill="black"/>
<path d="M143.739 6.57666H147.75V9.89501H143.739V6.57666ZM143.739 12.6066H147.75V26.7489H143.739V12.6066Z" fill="black"/>
<path d="M150.703 12.6066H154.623V15.6853C155.537 12.9737 157.025 12.2471 161.557 12.2471C164.934 12.2471 166.754 12.7639 167.94 14.0598C168.854 15.086 169.186 16.322 169.186 18.674V26.7564H165.175V18.8538C165.175 16.1722 164.171 15.4755 160.341 15.4755C156.149 15.4755 154.714 16.5317 154.714 19.6029V26.7489H150.703V12.6066Z" fill="black"/>
<path d="M177.895 19.3257L171.603 12.5991H176.86L180.901 17.2134L185.033 12.5991H190.199L183.998 19.1759L190.992 26.7414H185.826L180.901 21.1909L176.007 26.7414H170.931L177.895 19.3257Z" fill="black"/>
<path d="M79.3246 37.528H83.2448V40.6067C84.1588 37.895 85.6468 37.1685 90.1787 37.1685C93.555 37.1685 95.3754 37.6853 96.5613 38.9812C97.4752 40.0074 97.8075 41.2434 97.8075 43.5954V51.6778H93.7967V43.7752C93.7967 41.0936 92.7922 40.3969 88.9626 40.3969C84.7706 40.3969 83.3354 41.4531 83.3354 44.5243V51.6703H79.3246V37.528Z" fill="black"/>
<path d="M104.356 45.3707C104.386 46.9962 104.658 48.0224 105.21 48.5393C105.822 49.0861 107.491 49.3258 110.467 49.3258C113.813 49.3258 114.848 48.8763 115.059 47.2733H119.01C118.949 48.8089 118.526 49.8351 117.642 50.5617C116.396 51.558 114.387 51.9175 110.165 51.9175C106.909 51.9175 104.356 51.6479 103.261 51.161C101.071 50.1647 100.247 48.4494 100.247 44.6741C100.247 41.6329 100.761 39.9101 101.977 38.7939C103.253 37.6179 105.112 37.2883 110.067 37.2883C114.659 37.2883 116.449 37.7078 117.665 39.0336C118.67 40.1797 119.032 41.5655 119.032 44.4344V45.3707H104.349H104.356ZM115.059 43.0187C115.059 42.2022 114.969 41.7527 114.697 41.2359C114.485 40.8464 114.183 40.5393 113.873 40.3895C113.171 40.0898 111.834 39.8801 110.346 39.8801C107.272 39.8801 106.396 39.97 105.542 40.4194C104.809 40.8089 104.356 41.7453 104.356 42.8314V43.0112H115.059V43.0187Z" fill="black"/>
<path d="M125.256 45.3707C125.286 46.9962 125.558 48.0224 126.11 48.5393C126.722 49.0861 128.391 49.3258 131.367 49.3258C134.713 49.3258 135.748 48.8763 135.959 47.2733H139.91C139.849 48.8089 139.426 49.8351 138.542 50.5617C137.296 51.558 135.287 51.9175 131.065 51.9175C127.809 51.9175 125.256 51.6479 124.161 51.161C121.971 50.1647 121.147 48.4494 121.147 44.6741C121.147 41.6329 121.661 39.9101 122.877 38.7939C124.153 37.6179 126.012 37.2883 130.966 37.2883C135.559 37.2883 137.349 37.7078 138.565 39.0336C139.57 40.1797 139.932 41.5655 139.932 44.4344V45.3707H125.249H125.256ZM135.959 43.0187C135.959 42.2022 135.869 41.7527 135.597 41.2359C135.385 40.8464 135.083 40.5393 134.773 40.3895C134.071 40.0898 132.734 39.8801 131.246 39.8801C128.172 39.8801 127.296 39.97 126.442 40.4194C125.709 40.8089 125.256 41.7453 125.256 42.8314V43.0112H135.959V43.0187Z" fill="black"/>
<path d="M157.788 51.6703V48.9887C156.814 51.3407 155.386 51.94 150.794 51.94C146.813 51.94 144.623 51.4606 143.437 50.2846C142.432 49.2883 142.04 47.7827 142.04 44.9138C142.04 40.9063 142.614 39.3033 144.351 38.307C145.688 37.5804 147.637 37.2509 150.854 37.2509C153.166 37.2509 155.016 37.5505 155.93 38.0374C156.663 38.4269 157.116 38.8838 157.66 39.8201V31.498H161.671V51.6703H157.781H157.788ZM146.934 41.2359C146.353 41.9025 146.111 42.8913 146.111 44.6441C146.111 46.5168 146.383 47.513 147.025 48.0823C147.418 48.4119 148.18 48.6816 149.064 48.7789C149.276 48.8089 152.138 48.8988 152.531 48.8988C155.084 48.8988 156.33 48.6291 156.942 47.9325C157.426 47.3932 157.735 46.1872 157.735 44.7939C157.735 40.9362 156.972 40.2696 152.508 40.2696C148.921 40.2696 147.584 40.5093 146.942 41.2359H146.934Z" fill="black"/>
<path d="M178.386 41.3556C178.386 40.1796 177.442 39.9099 173.34 39.9099C169.541 39.9099 168.446 40.2994 168.446 41.5953C168.446 42.8013 169.118 43.011 173.129 43.011H175.35C179.058 43.011 180.486 43.1908 181.672 43.8575C182.707 44.4268 183.19 45.5129 183.19 47.2357C183.19 49.8275 182.306 51.0035 179.904 51.5503C178.688 51.82 176.467 51.9399 172.729 51.9399C167.834 51.9399 166.127 51.6103 165.07 50.4043C164.367 49.6477 164.125 48.8088 164.125 47.2957V47.1459H168.318V47.2957C168.408 49.0784 168.96 49.2582 174.126 49.2882C176.437 49.2482 177.857 49.1084 178.386 48.8687C178.809 48.659 179.089 48.1421 179.089 47.5728C179.089 46.1871 178.265 45.8575 174.677 45.9174C173.28 45.9474 169.873 45.8874 169.08 45.8575C165.553 45.6178 164.307 44.5616 164.307 41.82C164.307 39.3781 165.19 38.202 167.472 37.6927C168.748 37.423 170.757 37.2732 173.643 37.2732C178.054 37.2732 179.753 37.4829 181.03 38.1796C182.034 38.7189 182.548 39.805 182.548 41.408V41.4979H178.378V41.3781L178.386 41.3556Z" fill="black"/>
<path d="M38.0534 20L46.9814 28.8539C46.9814 28.8539 46.9588 28.9139 46.9512 28.9438C46.8455 29.2734 46.7926 29.633 46.7926 30C46.7926 31.9925 48.4166 33.603 50.4257 33.603C52.4349 33.603 54.0589 31.9925 54.0589 30C54.0589 28.0075 52.4349 26.397 50.4257 26.397C50.0556 26.397 49.6931 26.4494 49.3607 26.5543C49.3305 26.5618 49.3003 26.5768 49.2701 26.5843L40.3421 17.7303V0H20.1748V13.206L23.4001 10.0075V3.1985H37.1168V19.0562L38.061 20H38.0534Z" fill="#583eff"/>
<path d="M20.1673 22.2621L29.0953 13.4081C29.0953 13.4081 29.1557 13.4306 29.1859 13.4381C29.5182 13.543 29.8808 13.5954 30.2509 13.5954C32.2601 13.5954 33.8841 11.9849 33.8841 9.9924C33.8841 7.99989 32.2601 6.3894 30.2509 6.3894C28.2417 6.3894 26.6178 7.99989 26.6178 9.9924C26.6178 10.3594 26.6707 10.719 26.7764 11.0486C26.784 11.0785 26.7991 11.1085 26.8066 11.1385L17.8786 19.9924H0V39.9924H13.3164L10.0912 36.7939H3.22525V23.1909H19.2382L20.1673 22.2546V22.2621Z" fill="#583eff"/>
<path d="M23.4152 40.9513L13.5279 31.146C13.5279 31.146 13.5506 31.0861 13.5581 31.0561C13.6639 30.7266 13.7168 30.367 13.7168 30C13.7168 28.0075 12.0928 26.397 10.0836 26.397C8.07446 26.397 6.4505 28.0075 6.4505 30C6.4505 31.9925 8.07446 33.603 10.0836 33.603C10.4537 33.603 10.8163 33.5505 11.1486 33.4457C11.1789 33.4382 11.2091 33.4232 11.2393 33.4157L20.1673 42.2696V60.0075H40.3346V46.8015L37.1093 50V56.809H23.3925V43.206L23.4076 40.9588L23.4152 40.9513Z" fill="#583eff"/>
<path d="M40.3346 37.7379L31.4066 46.5918C31.4066 46.5918 31.3462 46.5694 31.3159 46.5619C30.9836 46.457 30.621 46.4046 30.2509 46.4046C28.2418 46.4046 26.6178 48.0151 26.6178 50.0076C26.6178 52.0001 28.2418 53.6106 30.2509 53.6106C32.2601 53.6106 33.8841 52.0001 33.8841 50.0076C33.8841 49.6405 33.8312 49.281 33.7254 48.9514C33.7179 48.9214 33.7028 48.8915 33.6952 48.8615L42.6232 40.0076H60.5094V20.0076H47.193L50.4182 23.2061H57.2841V36.8091H41.2863L40.3421 37.7454L40.3346 37.7379Z" fill="#583eff"/>
</g>
<defs>
<clipPath id="clip0_261_34">
<rect width="191" height="60" fill="black"/>
</clipPath>
</defs>
</svg>
