<?xml version="1.0" encoding="UTF-8" standalone="no"?>
<svg
   xmlns:dc="http://purl.org/dc/elements/1.1/"
   xmlns:cc="http://creativecommons.org/ns#"
   xmlns:rdf="http://www.w3.org/1999/02/22-rdf-syntax-ns#"
   xmlns:svg="http://www.w3.org/2000/svg"
   xmlns="http://www.w3.org/2000/svg"
   xmlns:xlink="http://www.w3.org/1999/xlink"
   xmlns:sodipodi="http://sodipodi.sourceforge.net/DTD/sodipodi-0.dtd"
   xmlns:inkscape="http://www.inkscape.org/namespaces/inkscape"
   width="196.99986mm"
   height="163.95764mm"
   viewBox="0 0 196.99986 163.95764"
   version="1.1"
   id="svg8"
   inkscape:version="1.0.2 (e86c870879, 2021-01-15)"
   sodipodi:docname="sphinx_needs_logo.svg"
   inkscape:export-filename="/home/daniel/workspace/sphinx/sphinx-scale/docs/_static/sphinx_scale_logo.png"
   inkscape:export-xdpi="90"
   inkscape:export-ydpi="90">
  <defs
     id="defs2">
    <linearGradient
       inkscape:collect="always"
       id="linearGradient915">
      <stop
         style="stop-color:#008000;stop-opacity:1"
         offset="0"
         id="stop911" />
      <stop
         style="stop-color:#ff2a2a;stop-opacity:1"
         offset="1"
         id="stop913" />
    </linearGradient>
    <linearGradient
       inkscape:collect="always"
       xlink:href="#linearGradient915"
       id="linearGradient917"
       x1="649.69153"
       y1="753.37402"
       x2="649.69153"
       y2="596.81342"
       gradientUnits="userSpaceOnUse"
       gradientTransform="translate(38.257221,133.87963)" />
  </defs>
  <sodipodi:namedview
     id="base"
     pagecolor="#ffffff"
     bordercolor="#666666"
     borderopacity="1.0"
     inkscape:pageopacity="0.0"
     inkscape:pageshadow="2"
     inkscape:zoom="0.24748737"
     inkscape:cx="863.69249"
     inkscape:cy="654.43765"
     inkscape:document-units="mm"
     inkscape:current-layer="layer1"
     inkscape:document-rotation="0"
     showgrid="false"
     inkscape:window-width="2560"
     inkscape:window-height="1388"
     inkscape:window-x="1920"
     inkscape:window-y="0"
     inkscape:window-maximized="1"
     fit-margin-top="0"
     fit-margin-left="0"
     fit-margin-right="0"
     fit-margin-bottom="0"
     inkscape:object-paths="true"
     inkscape:object-nodes="false" />
  <metadata
     id="metadata5">
    <rdf:RDF>
      <cc:Work
         rdf:about="">
        <dc:format>image/svg+xml</dc:format>
        <dc:type
           rdf:resource="http://purl.org/dc/dcmitype/StillImage" />
        <dc:title></dc:title>
      </cc:Work>
    </rdf:RDF>
  </metadata>
  <g
     inkscape:label="sphinx"
     inkscape:groupmode="layer"
     id="layer1"
     transform="translate(-10.122223,-35.42232)">
    <path
       id="path1470-0-2"
       style="fill:none;stroke:#000000;stroke-width:0.264583px;stroke-linecap:butt;stroke-linejoin:miter;stroke-opacity:1"
       d="m 293.58699,59.101363 v 0 m 66.01385,-69.98672 c -0.0497,-0.42705 -0.13766,-0.85077 -0.2713,-1.25935 -0.23778,-0.72696 -0.43253,-1.50361 -0.43253,-1.726 0,-0.53895 -0.51828,-1.7084 -2.68201,-6.05131 -1.11662,-2.2412 -1.81604,-3.97323 -1.81591,-4.49791 2.1e-4,-0.82174 0.74578,-3.14252 1.1343,-3.53105 0.26665,-0.26661 0.23409,-1.6079 -0.0522,-2.15439 -0.13238,-0.25269 -0.84469,-1.70956 -1.58337,-3.23753 -0.73868,-1.52797 -1.75214,-3.49251 -2.25206,-4.36563 -0.49992,-0.87313 -1.15871,-2.04118 -1.46348,-2.5957 -1.13835,-2.07122 -3.87815,-6.33862 -4.57129,-7.11998 -1.07065,-1.07687 -4.38294,-3.52937 -5.96961,-3.67588 -2.74032,0.15689 -9.41097,0.0906 -9.87696,0.15516 -2.51159,0.42561 -11.90869,0.50085 -16.93799,9.79165 -1.8522,4.97955 -2.2919,6.08776 -4.38009,12.484 -0.30409,1.14945 -0.60787,2.51801 -0.92501,4.03747 m 52.0795,13.74645 c 0.23353,2.0053296 -0.42658,4.0866596 -1.71204,5.0493096 -0.39132,0.29304 -0.84165,0.64025 -1.00046,0.77152 -0.35055,0.28978 -3.61225,2.08794 -4.80436,2.64843 -1.67261,0.93562 -3.46227,1.91654 -4.94698,2.68149 -2.99468,1.53859 -6.15437,3.58852 -6.48591,4.20801 -0.28766,0.5375 0.28014,1.23281 1.83245,2.24327 3.03106,1.97305 4.84952,5.1183204 5.82755,10.0789704 0.17215,0.87313 0.41014,4.14735 0.52865,7.27604 0.38024,10.03868 1.32048,13.23655 4.63331,15.75718 2.42486,1.84499 4.3837,2.1695 14.2875,2.36781 8.7704,0.17561 15.1827,0.89645 18.8681,2.1208 0.40285,0.13384 0.7821,0.27295 1.14721,0.41652 M 251.08602,11.478133 c -8.14539,0.40621 -18.20995,0.42036 -22.22706,1.63143 -7.09931,1.97312 -8.38302,3.56768 -12.84935,9.48004 -3.68233,6.28919 -4.40422,8.03547 -5.6596,11.467 -1.59743,4.6619 -4.53301,23.98173 -4.53301,25.34864 l 67.79149,-0.16157 c 12.21939,-0.0539 24.43876,-0.11487 36.65819,-0.16157 16.63837,-0.0636 49.91521,-0.16156 49.91521,-0.16156 l 34.69845,-0.16157 v -3.43493 c 0,-3.35613 -0.0198,-3.47338 -0.8599,-5.10667 -1.37885,-2.68056 -3.17091,-4.27478 -6.24458,-5.48338 m -80.25452,-69.3658 c -2.08349,9.98248 -4.79556,16.8701596 -12.71137,27.4510496 -1.91455,2.2237 -4.03942,3.81447 -6.29099,4.95315 -7.07591,3.5785004 -14.88896,2.2810704 -22.3853,2.9533404 -3.99328,0.35812 -6.20229,0.0314 -12.01425,0.5736 -0.96658,0.0686 -1.98632,0.12659 -3.03341,0.1788"
       sodipodi:nodetypes="cccssssssssscccccccssccssssssscccccccsccsscccsscc" />
    <path
       id="path1596"
       style="fill:#000055;stroke:#808080;stroke-width:3.77953;stroke-linejoin:round;stroke-miterlimit:4;stroke-dasharray:none;stroke-opacity:1;paint-order:fill markers stroke"
       d="m 187.68945,-539.02734 c -15.06621,-0.0113 -20.84972,0.27059 -28.34179,1.37304 -24.1959,3.55986 -40.68278,13.1855 -52.13868,30.43946 -1.70112,2.5621 -4.2632,8.72228 -7.01562,15.9375 l 139.31836,140.85937 c 0.29892,-0.16036 0.37372,-0.21808 0.67773,-0.38086 35.78582,-19.15877 37.0272,-20.13511 38.97071,-30.64844 0.56318,-3.04659 0.46841,-5.03265 -0.4375,-9.13867 -0.6367,-2.8855 -1.4527,-6.67054 -1.8125,-8.41015 -0.3597,-1.73963 -3.83198,-9.77366 -7.7168,-17.85547 -4.91728,-10.22975 -7.32554,-15.42918 -8.42188,-18.86914 -3.10341,-3.73011 -2.41601,-7.22852 -2.41601,-7.22852 0.45849,-2.18577 1.69183,-5.88455 2.74023,-8.2207 1.39586,-3.11095 1.78831,-4.88282 1.46289,-6.61719 -1.0996,-5.86131 -20.13566,-41.41245 -31.36328,-58.57422 -5.5878,-8.54131 -8.85551,-11.96884 -16.08593,-16.8789 -6.87344,-4.66763 -8.77827,-5.52433 -19.72071,-5.69922 l -0.004,-0.0352 c -2.3732,-0.0189 -4.38372,-0.0501 -7.69532,-0.0527 z"
       transform="matrix(0.26458333,0,0,0.26458333,10.122223,35.42232)"
       sodipodi:nodetypes="ccscccsscsccccssccc" />
    <path
       id="path3712"
       style="fill:#000055;stroke:#808080;stroke-width:1;stroke-linejoin:round;stroke-miterlimit:4;stroke-dasharray:none;stroke-opacity:1;paint-order:fill markers stroke"
       d="m 47.583503,-81.3659 -9.636622,20.485055 26.688811,10.579201 c 0.03833,-0.11415 0.05301,-0.230265 0.144693,-0.341583 0.714865,-0.868005 3.065214,-2.315718 8.18348,-5.061706 z" />
    <path
       id="path3729"
       style="fill:#000055;stroke:#808080;stroke-width:1;stroke-linejoin:round;stroke-miterlimit:4;stroke-dasharray:none;stroke-opacity:1;paint-order:fill markers stroke"
       d="m 34.515049,-94.032308 c -1.542057,4.042351 -3.383267,9.815652 -4.280876,13.819309 -1.423554,6.349645 -2.574805,9.890096 -4.534606,14.04824 l 10.659813,4.225581 9.636622,-20.485055 z" />
    <path
       id="path1700"
       style="fill:#000055;stroke:#808080;stroke-width:1;stroke-linejoin:round;stroke-miterlimit:4;stroke-dasharray:none;stroke-opacity:1;paint-order:fill markers stroke"
       d="m -45.090887,-21.981349 -1.303798,-0.177253 -9.80612,-1.332732 -1.607653,14.5458807 9.974585,4.2912109 z" />
    <path
       id="path3681"
       style="fill:#000055;stroke:#808080;stroke-width:1;stroke-linejoin:round;stroke-miterlimit:4;stroke-dasharray:none;stroke-opacity:1;paint-order:fill markers stroke"
       d="m -42.734575,-20.139032 -2.742986,17.3271074 9.874332,4.2483193 1.438156,-9.4521363 1.273823,-8.3741664 0.359151,-2.362647 z" />
    <path
       id="path1698"
       style="fill:#000055;stroke:#808080;stroke-width:1;stroke-linejoin:round;stroke-miterlimit:4;stroke-dasharray:none;stroke-opacity:1;paint-order:fill markers stroke"
       d="m -4.1174022,-36.271028 -18.3776898,15.270384 9.842294,5.985682 15.5788935,-5.394502 z" />
    <path
       id="path1696"
       style="fill:#000055;stroke:#808080;stroke-width:1;stroke-linejoin:round;stroke-miterlimit:4;stroke-dasharray:none;stroke-opacity:1;paint-order:fill markers stroke"
       d="m -28.871648,-43.77451 -2.480987,16.311666 8.2057,4.990909 18.3776899,-15.270384 -3.0907674,-6.960299 c -2.5829315,0.095 -5.4549385,0.205658 -6.6517905,0.286803 -1.54143,0.104508 -3.710223,0.190318 -4.819343,0.190688 -1.109131,3.36e-4 -3.844944,0.124735 -6.079734,0.276468 -0.818459,0.05557 -2.263573,0.110096 -3.460768,0.174149 z" />
    <path
       id="path1694"
       style="fill:#000055;stroke:#808080;stroke-width:1;stroke-linejoin:round;stroke-miterlimit:4;stroke-dasharray:none;stroke-opacity:1;paint-order:fill markers stroke"
       d="m -48.531026,-46.689002 2.910932,19.097024 11.506274,1.56373 0.815973,-5.364015 h 5.16e-4 l 2.480987,-16.311665 c -2.071711,0.110844 -4.111331,0.231304 -5.988783,0.300757 -5.795272,0.214392 -9.248796,0.444029 -11.725899,0.714169 z" />
    <path
       id="path1692"
       style="opacity:1;fill:#000055;fill-opacity:1;stroke:#808080;stroke-width:1;stroke-linejoin:round;stroke-miterlimit:4;stroke-dasharray:none;stroke-opacity:1;paint-order:fill markers stroke"
       d="m -73.031006,-35.868912 13.365075,1.816944 9.806119,1.332733 -2.910932,-19.097024 c -0.481711,0.05253 -1.23017,0.09565 -1.619539,0.152445 -3.191771,0.465556 -6.710216,1.632984 -8.888346,2.948657 -2.275491,1.374486 -5.724086,5.460013 -7.949387,9.417513 -0.732597,1.302861 -1.255975,2.34796 -1.80299,3.428732 z" />
    <path
       id="path1690"
       style="fill:#000055;stroke:#808080;stroke-width:1;stroke-linejoin:round;stroke-miterlimit:4;stroke-dasharray:none;stroke-opacity:1;paint-order:fill markers stroke"
       d="m -77.025799,-10.06112 16.251203,1.2614217 1.607653,-14.5458827 -13.365075,-1.816944 c -2.128575,4.205573 -3.195058,7.88298 -4.493781,15.101405 z" />
    <path
       id="path1688"
       style="fill:#000055;stroke:#808080;stroke-width:1;stroke-linejoin:round;stroke-miterlimit:4;stroke-dasharray:none;stroke-opacity:1;paint-order:fill markers stroke"
       d="m -60.730777,-3.6975568 -4.534091,4.32841923 3.059761,10.17508857 6.459556,-14.1164515 z" />
    <path
       id="path3697"
       style="fill:#000055;stroke:#808080;stroke-width:1;stroke-linejoin:round;stroke-miterlimit:4;stroke-dasharray:none;stroke-opacity:1;paint-order:fill markers stroke"
       d="m -79.005969,14.611147 -3.54862,-4.434872 c -0.234585,1.580219 -0.668385,4.240393 -0.669211,4.408 -1e-4,0.02136 3.281484,0.01456 4.217831,0.02687 z" />
    <path
       id="path3695"
       style="fill:#000055;stroke:#808080;stroke-width:1;stroke-linejoin:round;stroke-miterlimit:4;stroke-dasharray:none;stroke-opacity:1;paint-order:fill markers stroke"
       d="m -73.545796,0.21403505 -3.450952,-0.2676842 c -0.24478,1.36049805 -0.465431,2.46691945 -0.747242,4.14858465 -0.404812,2.4156616 -0.671499,4.370308 -1.034044,6.8125045 l 3.54862,4.434871 c 0.690616,0.0091 1.875391,0.01549 3.110921,0.02015 z" />
    <path
       id="path3693"
       style="fill:#000055;stroke:#808080;stroke-width:1;stroke-linejoin:round;stroke-miterlimit:4;stroke-dasharray:none;stroke-opacity:1;paint-order:fill markers stroke"
       d="m -72.091428,-4.3074265 1.526318,16.5111525 c 2.07338,0.008 1.610248,0.03617 5.220536,0.0338 l 0.03371,-0.07548 -3.272022,-11.0904198 4.848629,-4.7177952 z" />
    <path
       id="path1686"
       style="fill:#000055;stroke:#808080;stroke-width:1;stroke-linejoin:round;stroke-miterlimit:4;stroke-dasharray:none;stroke-opacity:1;paint-order:fill markers stroke"
       d="M -42.022397,12.75342 -55.56369,0.22705386 -61.318893,12.804063 c 3.355123,-0.0022 11.863832,-0.02857 19.296496,-0.05064 z" />
    <path
       id="path3686"
       style="fill:#000055;stroke:#808080;stroke-width:1;stroke-linejoin:round;stroke-miterlimit:4;stroke-dasharray:none;stroke-opacity:1;paint-order:fill markers stroke"
       d="m -54.298651,-3.4983006 -0.735872,1.6086878 13.541293,12.5263658 c 2.386192,-0.0071 4.051538,-0.01021 6.19497,-0.01654 l 0.848527,-5.5789865 z" />
    <path
       id="path1684"
       style="fill:#000055;stroke:#808080;stroke-width:1;stroke-linejoin:round;stroke-miterlimit:4;stroke-dasharray:none;stroke-opacity:1;paint-order:fill markers stroke"
       d="m -12.456668,10.31042 -19.549711,-14.9556746 -1.438155,9.4521363 -0.848527,5.5789873 c 4.762971,-0.01407 15.475233,-0.0539 21.836393,-0.07545 z" />
    <path
       id="path1682"
       style="fill:#000055;stroke:#808080;stroke-width:1;stroke-linejoin:round;stroke-miterlimit:4;stroke-dasharray:none;stroke-opacity:1;paint-order:fill markers stroke"
       d="m -13.064475,7.3682188 0.550354,-20.0783608 -9.842294,-5.985682 -8.2057,-4.990909 h -5.16e-4 l -0.815973,5.364014 -0.35915,2.362647 -1.273824,8.3741654 19.549711,14.9556759 c 0.115765,-3.916e-4 0.281061,-0.00116 0.397392,-0.00155 z" />
    <path
       id="path1680"
       style="fill:#000055;stroke:#808080;stroke-width:1;stroke-linejoin:round;stroke-miterlimit:4;stroke-dasharray:none;stroke-opacity:1;paint-order:fill markers stroke"
       d="M 15.293797,6.4405481 4.0247178,-18.93775 -11.554176,-13.543247 -12.10453,6.5351151 c 8.0204995,-0.02722 16.4587956,-0.05466 27.398327,-0.09457 z" />
    <path
       id="path1678"
       style="fill:#000055;stroke:#808080;stroke-width:1;stroke-linejoin:round;stroke-miterlimit:4;stroke-dasharray:none;stroke-opacity:1;paint-order:fill markers stroke"
       d="M 16.227278,5.1559502 63.000134,-49.130141 c 0.0066,-0.03856 0.03535,-0.07534 0.04806,-0.11317 L 25.699568,-64.048093 c -0.125247,0.265737 -0.223136,0.51571 -0.355534,0.787548 -2.16583,4.446892 -6.280511,10.816894 -8.576221,13.277226 -1.54223,1.652841 -3.800508,3.307508 -5.850289,4.286559 -3.8431006,1.835629 -6.6060678,2.325889 -14.4843876,2.570904 -0.7087152,0.02204 -1.1714702,0.05533 -1.9151284,0.08268 l 3.0907672,6.960298 7.0434977,15.861565 11.2690801,25.3782957 c 0.122149,-4.471e-4 0.183384,-5.873e-4 0.305925,-0.00103 z" />
    <path
       id="path1676"
       style="fill:#000055;stroke:#808080;stroke-width:3.77952761;stroke-linejoin:round;stroke-miterlimit:4;stroke-dasharray:none;stroke-opacity:1;paint-order:fill markers stroke"
       d="M 194.01367 -314.28516 C 194.00843 -314.30489 193.99704 -314.32605 193.99219 -314.3457 C 193.99363 -314.3394 193.98874 -314.33443 193.99023 -314.32812 C 193.99336 -314.31493 194.01034 -314.2984 194.01367 -314.28516 z "
       transform="matrix(0.26458333,0,0,0.26458333,10.122223,35.42232)" />
    <path
       id="path1674"
       style="fill:#000055;stroke:#808080;stroke-width:3.77952761;stroke-linejoin:round;stroke-miterlimit:4;stroke-dasharray:none;stroke-opacity:1;paint-order:fill markers stroke"
       d="M 398.33789 -137.19531 L 398.33203 -137.54688 L 398.12695 -137.92969 C 398.20241 -137.69215 398.2741 -137.43882 398.33789 -137.19531 z "
       transform="matrix(0.26458333,0,0,0.26458333,10.122223,35.42232)" />
    <path
       id="path1672"
       style="fill:#000055;stroke:#808080;stroke-width:1;stroke-linejoin:round;stroke-miterlimit:4;stroke-dasharray:none;stroke-opacity:1;paint-order:fill markers stroke"
       d="m 113.03536,-8.0256733 c -4.23989,3.0612106 -7.7667,5.6271848 -15.659028,11.2442756 -1.961893,1.3963121 -3.538683,2.4789051 -5.45755,3.8349078 6.68704,-0.018494 19.101768,-0.064675 21.465388,-0.065114 l 11.77964,-0.00207 -0.062,-3.449402 -0.061,-3.35586646 c -0.0169,-0.0644287 -0.0358,-0.13145558 -0.0558,-0.19430471 l -0.69918,-1.30999703 c -0.90551,-1.695495 -2.51576,-3.4638324 -3.92792,-4.3139492 -1.7517,-1.0544968 -4.11821,-1.82753 -7.32255,-2.3884837 z" />
    <path
       id="path3719"
       style="fill:#000055;stroke:#808080;stroke-width:1;stroke-linejoin:round;stroke-miterlimit:4;stroke-dasharray:none;stroke-opacity:1;paint-order:fill markers stroke"
       d="M 75.922342,-20.802154 51.589978,-5.7715476 c 0,0 4.07139,6.35920208 8.328689,12.7330727 0.04312,0.064564 0.07931,0.1132073 0.122473,0.1777683 12.241263,-0.043294 19.396675,-0.061513 28.173473,-0.085783 1.918867,-1.3560027 3.495657,-2.4385957 5.45755,-3.8349078 7.892307,-5.6170908 11.419117,-8.183065 15.659007,-11.2442756 -3.02459,-0.5294868 -6.79179,-0.8708892 -11.61946,-1.053166 -15.072891,-0.5691002 -15.75028,-0.6965235 -18.535821,-3.480925 -1.903794,-1.903015 -2.732868,-3.680925 -3.253547,-8.24239 z" />
    <path
       id="path3717"
       style="fill:#000055;stroke:#808080;stroke-width:3.77953;stroke-linejoin:round;stroke-miterlimit:4;stroke-dasharray:none;stroke-opacity:1;paint-order:fill markers stroke"
       d="M 199.41211 -188.23633 L 149.30859 -245.94141 L 29.074219 -106.39258 C 30.190619 -106.39666 30.736303 -106.39822 31.861328 -106.40234 C 77.087801 -106.56763 83.654445 -106.5648 143.9043 -106.79102 C 159.19735 -106.84844 163.5644 -106.84306 178.66992 -106.89648 C 178.5068 -107.14049 178.37002 -107.32434 178.20703 -107.56836 C 162.11645 -131.65858 146.72852 -155.69336 146.72852 -155.69336 L 199.41211 -188.23633 z "
       transform="matrix(0.26458333,0,0,0.26458333,10.122223,35.42232)" />
    <path
       id="path3724"
       style="fill:#000055;stroke:#808080;stroke-width:1;stroke-linejoin:round;stroke-miterlimit:4;stroke-dasharray:none;stroke-opacity:1;paint-order:fill markers stroke"
       d="m 66.175133,-48.600975 -14.960845,17.363797 13.256556,15.267802 10.393164,-6.420279 c -0.201647,-1.766548 -0.36185,-3.913102 -0.513146,-6.701916 -0.337035,-6.212533 -0.519867,-7.755689 -1.164789,-9.813357 -0.997429,-3.182373 -2.657938,-5.65613 -4.846733,-7.221262 -1.359064,-0.971833 -1.980628,-1.603978 -2.121833,-2.135272 -8.82e-4,-0.0035 -0.0054,-0.0079 -0.0062,-0.01137 -3.95e-4,-0.0017 8.99e-4,-0.003 5.18e-4,-0.0047 -0.02691,-0.108963 -0.05396,-0.22211 -0.03669,-0.323495 z" />
    <path
       id="path1470-0-3"
       style="fill:none;stroke:#000000;stroke-width:0.264583px;stroke-linecap:butt;stroke-linejoin:miter;stroke-opacity:1"
       d="m -55.474042,157.7137 -2.949533,-19.35227 m 23.47786,20.54272 18.378011,-15.26999 m -8.53558,21.256 -18.048353,-10.97672 m -2.449306,16.10063 19.939222,15.25356 0.558437,-20.37747 15.578983,-5.3944 m -37.514533,19.97037 -19.849298,-8.53917 1.608001,-14.546 m -18.220261,13.25654 16.61226,1.28946 -6.613669,14.45469 m -5.525951,-30.86912 35.060106,4.765 M 48.908158,130.4881 11.292671,115.5778 m 37.615487,14.9103 -47.059527,54.61927 v 0 m -21.62691,-48.70336 21.62691,48.70336 67.292437,-16.99632 m -1.27858,-52.99039 c -0.0497,-0.42706 -0.13766,-0.85078 -0.2713,-1.25936 -0.23778,-0.72696 -0.43253,-1.5036 -0.43253,-1.72599 0,-0.53895 -0.51828,-1.70841 -2.68201,-6.05131 -1.11662,-2.2412 -1.81604,-3.97324 -1.81591,-4.49792 2.1e-4,-0.82174 0.74578,-3.142518 1.1343,-3.531048 0.26665,-0.26661 0.23409,-1.607899 -0.0522,-2.15439 -0.13238,-0.25269 -0.84469,-1.709559 -1.58337,-3.237528 -0.73868,-1.52797 -1.75214,-3.492505 -2.25206,-4.365625 -0.49992,-0.87313 -1.15871,-2.041188 -1.46348,-2.595707 -1.13835,-2.071211 -3.87815,-6.338619 -4.57129,-7.119979 -1.07065,-1.076871 -4.38294,-3.529367 -5.96961,-3.675873 -2.74032,0.156884 -9.410977,0.09058 -9.876967,0.155157 -2.51159,0.425611 -11.90869,0.500851 -16.93799,9.791651 -1.8522,4.97955 -2.2919,6.087762 -4.38009,12.483993 -0.30409,1.149455 -0.60787,2.518013 -0.92501,4.037479 m 52.079507,13.74645 c 0.23353,2.00533 -0.42658,4.08666 -1.71204,5.0493 -0.39132,0.29304 -0.84165,0.64026 -1.00046,0.77153 -0.35055,0.28977 -3.61225,2.08794 -4.80436,2.64842 -1.67261,0.93562 -3.46227,1.91654 -4.94698,2.68149 -2.99468,1.53859 -6.15437,3.58852 -6.48591,4.20801 -0.28766,0.5375 0.28014,1.23281 1.83245,2.24327 3.03106,1.97305 4.84952,5.11832 5.82755,10.07897 0.17215,0.87313 0.41014,4.14735 0.52865,7.27604 0.38024,10.03868 1.32048,13.23655 4.63331,15.75718 2.42486,1.84499 4.3837,2.1695 14.2875,2.36781 8.7704,0.17561 15.1827,0.89645 18.8681,2.1208 0.40285,0.13384 0.7821,0.27295 1.14721,0.41652 M -40.652333,137.48414 c -8.145396,0.40621 -18.209953,0.42036 -22.227066,1.63143 -7.099305,1.97312 -8.383018,3.56768 -12.849344,9.48004 -3.682329,6.28919 -4.404217,8.03547 -5.659603,11.467 -1.597424,4.6619 -4.533005,23.98173 -4.533005,25.34864 l 67.791484,-0.16157 c 12.219395,-0.0539 24.438758,-0.11487 36.658188,-0.16157 16.63837,-0.0636 49.915217,-0.16156 49.915217,-0.16156 l 34.698452,-0.16157 v -3.43493 c 0,-3.35613 -0.0198,-3.47338 -0.8599,-5.10667 -1.37885,-2.68056 -3.170912,-4.27478 -6.244582,-5.48338 M 15.782981,101.37421 c -2.08349,9.98248 -4.79556,16.87015 -12.71137,27.45104 -1.91455,2.2237 -4.03942,3.81447 -6.290985,4.95315 -7.075909,3.5785 -14.888956,2.28107 -22.385298,2.95334 -3.993286,0.35812 -6.202293,0.0314 -12.014252,0.5736 -0.966579,0.0686 -1.98632,0.12659 -3.033409,0.1788 l -3.674676,24.15568 -3.674679,24.15568" />
    <path
       style="fill:#666666;stroke:#000000;stroke-width:0.264999;stroke-linejoin:round;stroke-miterlimit:4;stroke-dasharray:none;stroke-opacity:1;paint-order:fill markers stroke"
       d="m 254.3139,197.15483 c 0.002,-0.42664 1.03653,-7.24162 1.70328,-11.22033 2.16127,-12.89705 2.92328,-15.35041 7.04391,-22.67857 2.2253,-3.95751 5.6742,-8.04332 7.94969,-9.41781 2.17813,-1.31567 5.69649,-2.48274 8.88826,-2.94829 2.39162,-0.34885 6.42339,-0.61071 13.34564,-0.86679 2.96239,-0.10959 7.21462,-0.3234 9.4494,-0.47513 2.23479,-0.15174 4.97071,-0.27616 6.07984,-0.27649 1.10912,-3.7e-4 3.27776,-0.0861 4.81919,-0.19063 1.54144,-0.10451 5.39647,-0.27068 8.56675,-0.36928 7.87832,-0.24501 10.64145,-0.73549 14.48455,-2.57112 2.04978,-0.97905 4.30792,-2.63362 5.85015,-4.28646 2.29571,-2.46034 6.41029,-8.83043 8.57612,-13.27732 2.20411,-4.52546 3.37587,-8.08013 4.8904,-14.83557 1.32151,-5.8944 4.73385,-15.923094 6.13701,-18.036414 3.03104,-4.565091 7.39344,-7.111894 13.79527,-8.053764 1.98228,-0.29165 3.51237,-0.36574 7.49864,-0.36313 5.62633,0.004 5.49769,-0.0216 7.78406,1.53103 1.91305,1.29912 2.77765,2.206403 4.25609,4.466279 2.97064,4.540707 8.00698,13.946939 8.29792,15.497749 0.0861,0.45888 -0.0175,0.92727 -0.38682,1.75037 -0.27739,0.61811 -0.6036,1.597 -0.72491,2.17532 -0.28083,1.33898 -0.1465,1.73569 2.3382,6.90478 1.02786,2.13831 1.9467,4.26443 2.04187,4.7247 0.0952,0.46028 0.31086,1.46151 0.47932,2.22497 0.23969,1.08638 0.26487,1.61197 0.11586,2.41806 -0.51422,2.78164 -0.84264,3.03994 -10.31097,8.10903 -5.2864,2.83021 -7.6368,4.28119 -8.36271,5.16261 -0.59378,0.72097 -0.10845,1.4421 1.97144,2.92937 2.18879,1.56513 3.84902,4.03885 4.84645,7.22123 0.64492,2.05767 0.82814,3.60073 1.16517,9.81326 0.54197,9.98991 1.12533,12.30453 3.76642,14.94454 2.78554,2.7844 3.46297,2.91162 18.53586,3.48072 9.94224,0.37538 15.53709,1.39198 18.94222,3.44182 1.41216,0.85011 3.02196,2.6182 3.92748,4.3137 l 0.75382,1.41148 0.0623,3.44904 0.0622,3.44903 -11.77949,0.002 c -6.47876,0.001 -32.95566,0.0817 -58.83757,0.17886 -106.36184,0.39935 -118.02304,0.42573 -118.0223,0.26698 z"
       id="path1596-7" />
  </g>
  <g
     inkscape:groupmode="layer"
     id="layer4"
     inkscape:label="text"
     style="display:inline"
     transform="translate(-10.122223,-35.42232)" />
  <g
     inkscape:groupmode="layer"
     id="layer3"
     inkscape:label="axis"
     style="display:none"
     transform="translate(-10.122223,-35.42232)">
    <path
       style="fill:none;stroke:#4d4d4d;stroke-width:2;stroke-linecap:butt;stroke-linejoin:miter;stroke-miterlimit:4;stroke-dasharray:none;stroke-opacity:1"
       d="M 51.800949,104.89242 50.692861,222.88329"
       id="path919"
       sodipodi:nodetypes="cc" />
    <path
       style="fill:none;stroke:#4d4d4d;stroke-width:2;stroke-linecap:butt;stroke-linejoin:miter;stroke-miterlimit:4;stroke-dasharray:none;stroke-opacity:1"
       d="M 260.38239,219.0661 44.094001,217.95801"
       id="path919-6"
       sodipodi:nodetypes="cc" />
    <path
       style="fill:#4d4d4d;stroke:#4d4d4d;stroke-width:1;stroke-linecap:butt;stroke-linejoin:miter;stroke-miterlimit:4;stroke-dasharray:none;stroke-opacity:1"
       d="m 52.062835,99.722523 4.619471,13.292247 -10.198622,-0.0141 z"
       id="path1223"
       sodipodi:nodetypes="cccc" />
    <path
       style="fill:#4d4d4d;stroke:#4d4d4d;stroke-width:1;stroke-linecap:butt;stroke-linejoin:miter;stroke-miterlimit:4;stroke-dasharray:none;stroke-opacity:1"
       d="m 267.07572,219.50741 -13.29225,4.61947 0.0141,-10.19862 z"
       id="path1223-3"
       sodipodi:nodetypes="cccc" />
  </g>
  <g
     inkscape:groupmode="layer"
     id="layer2"
     inkscape:label="bg"
     style="display:none"
     sodipodi:insensitive="true"
     transform="translate(-10.122223,-35.42232)">
    <path
       style="opacity:0.666299;fill:url(#linearGradient917);fill-opacity:1;stroke:none;stroke-width:18.8976;stroke-linejoin:round;stroke-miterlimit:4;stroke-dasharray:none;paint-order:fill markers stroke"
       d="m 223.70705,816.75041 c -8.26431,-0.0779 -15.02602,-0.20226 -15.02602,-0.27641 0,-0.0741 3.38474,-8.0182 7.52165,-17.65345 l 7.52166,-17.51865 8.80227,-13.52749 c 4.84125,-7.44012 12.30934,-18.95628 16.59574,-25.59148 8.22733,-12.7356 12.18522,-17.58468 17.33338,-21.23632 6.62236,-4.69729 13.5116,-7.3303 27.83573,-10.63857 4.44467,-1.02654 15.69524,-3.75996 25.00127,-6.07429 41.0983,-10.22076 41.21114,-10.23696 89.3985,-12.83211 4.86136,-0.26181 17.70292,-0.72865 28.53681,-1.03743 26.05326,-0.74254 39.4453,-1.39908 47.72971,-2.33992 28.05356,-3.18599 47.57125,-11.16338 63.97817,-26.14955 7.45225,-6.80692 18.11685,-24.32829 25.70423,-42.23064 10.17311,-24.00341 16.81501,-48.00801 26.49153,-95.74345 1.93492,-9.54522 4.07681,-19.69331 4.75976,-22.55132 1.96626,-8.22837 15.11512,-46.37212 17.75787,-51.51412 4.12488,-8.02574 13.21448,-17.05211 21.98903,-21.83606 11.16329,-6.08631 23.19306,-8.39566 50.11266,-9.6201 l 17.09651,-0.77763 3.10657,1.85908 c 9.72433,5.81945 15.26148,9.87234 17.10425,12.51935 8.19871,11.77704 19.89849,32.15123 28.20811,49.12216 l 5.49033,11.21303 -1.18476,2.67898 c -2.1542,4.87101 -3.51179,10.51384 -3.49896,14.54345 0.0157,4.95508 1.08116,7.80712 9.24481,24.74874 3.5473,7.36148 6.70398,14.18001 7.01486,15.15228 2.66094,8.32231 3.62983,15.36742 2.62604,19.09513 -0.9899,3.67627 -4.13617,6.05954 -16.94637,12.83681 -40.34004,21.34197 -50.06048,27.44763 -52.95949,33.26519 -3.34073,6.70398 -0.52199,13.38656 8.25322,19.56641 9.37608,6.60306 13.41093,12.01221 16.83187,22.56517 3.06475,9.45407 3.46679,12.60566 4.63932,36.36549 1.50766,30.5515 3.7207,43.43802 9.12087,53.11114 5.74398,10.28894 15.97324,18.35387 27.10048,21.36658 7.87025,2.13088 16.20891,2.82806 42.57212,3.55941 46.98699,1.30346 68.59491,4.59735 81.66538,12.44899 3.78251,2.27222 8.75438,7.72591 11.26865,12.36073 l 2.02031,3.72425 0.16753,8.37749 0.16749,8.37748 -17.08754,0.33427 c -15.88132,0.31067 -640.76634,0.27116 -674.06555,-0.0426 z"
       id="path909"
       transform="scale(0.26458333)" />
  </g>
</svg>
