<svg width="160" height="40" viewBox="0 0 160 40" fill="none" xmlns="http://www.w3.org/2000/svg">
<path d="M24.3873 0.120605L27.4344 3.44481V10.091H33.5328L36.5799 13.413V0.120605H24.3873Z" fill="black"/>
<path d="M0 0.120605L3.04917 3.44481V10.091H9.1455L12.1927 13.413V0.120605H0Z" fill="black"/>
<path d="M12.1927 0.120605L15.2419 3.44481V10.091H21.3382L24.3874 13.413V0.120605H12.1927Z" fill="black"/>
<path d="M0 13.4131L3.04917 16.7373V23.3835H9.1455L12.1927 26.7077V13.4131H0Z" fill="black"/>
<path d="M12.1927 13.4131L15.2419 16.7373V23.3835H21.3382L24.3874 26.7077V13.4131H12.1927Z" fill="black"/>
<path d="M24.3873 13.4131L27.4344 16.7373V23.3835H33.5328L36.5799 26.7077V13.4131H24.3873Z" fill="black"/>
<path d="M0 26.7075L3.04917 30.0295V36.6779H9.1455L12.1927 39.9999V26.7075H0Z" fill="black"/>
<path d="M12.1927 26.7075L15.2419 30.0295V36.6779H21.3382L24.3874 39.9999V26.7075H12.1927Z" fill="black"/>
<path d="M24.3873 26.7075L27.4344 30.0295V36.6779H33.5328L36.5799 39.9999V26.7075H24.3873Z" fill="black"/>
<path d="M50.0269 0.118164V7.73513C50.0269 9.42024 50.0269 9.46625 50.0912 9.8826C50.3023 11.6137 51.0017 11.96 54.2197 11.96C57.4378 11.96 58.3282 11.8679 58.8568 11.4297C59.2809 11.0834 59.492 10.4129 59.5141 9.23617C59.5288 9.00535 59.5362 8.3202 59.5362 7.18073V0.118164H63.8356V8.19749C63.8778 12.006 63.5823 13.1367 62.3321 14.3594C61.315 15.214 60.0447 15.5822 58.2036 15.6063C57.5483 15.6304 57.1664 15.6304 56.3202 15.6304L54.7102 15.6523C50.7284 15.6304 49.9465 15.5844 48.9093 15.2842C46.3466 14.4295 45.6692 12.9745 45.7335 8.40566V0.118164H50.0329H50.0269Z" fill="black"/>
<path d="M70.1832 10.5971C70.2254 11.6577 70.3319 11.9119 70.8404 12.1201C71.158 12.2581 72.364 12.3502 73.7208 12.3502C78.6975 12.3502 79.2885 12.188 79.2885 10.9193C79.2885 10.2947 79.0131 9.83456 78.5689 9.6724C78.258 9.5643 77.3615 9.50294 75.8795 9.48833H71.9841C69.3792 9.48833 68.2998 9.32617 67.3893 8.81779C66.3722 8.24148 65.9079 7.01654 65.9079 4.91728C65.9079 2.14747 66.6275 0.970746 68.6616 0.43826C69.8053 0.116139 71.4555 0 74.5469 0C79.5015 0 80.6452 0.138052 81.6623 0.854607C82.6371 1.57116 82.9527 2.5178 82.9527 4.82524H78.7598C78.7598 3.48636 78.3357 3.30229 75.5619 3.30229C74.1851 3.30229 72.3439 3.34831 71.6665 3.39432C70.5229 3.48636 70.143 3.81067 70.143 4.68719C70.143 5.33363 70.4384 5.74778 71.0535 5.90994C71.3068 5.98006 71.3932 6.00197 72.7901 6.02608H76.792C77.1739 6.02608 79.0794 6.0962 79.799 6.14222C82.4884 6.28027 83.5477 7.57313 83.5477 10.6673C83.5477 13.5072 82.7859 14.7518 80.7095 15.2383C79.6503 15.4925 77.5538 15.6305 74.4846 15.6305C69.5942 15.6305 68.5129 15.5144 67.2646 14.822C66.3963 14.3596 65.9521 13.1829 65.9521 11.3597C65.9521 11.2217 65.9521 10.9214 65.9742 10.5971H70.1872H70.1832Z" fill="black"/>
<path d="M101.35 0.118164V3.60452H89.9375V6.25819H100.693V9.3041H89.9375V12.0279H101.499V15.5142H85.7044V0.118164H101.352H101.35Z" fill="black"/>
<path d="M45.7516 21.2754H58.4991C60.1292 21.2754 61.0176 21.4375 61.7593 21.8298C62.903 22.4762 63.3693 23.5149 63.3693 25.4783C63.3693 27.4417 62.7341 28.5242 61.3995 28.8025C63.305 29.1947 63.9401 30.0954 63.9401 32.3349C63.9401 34.2742 63.4316 35.4991 62.31 36.1434C61.6528 36.5115 60.7221 36.6737 59.092 36.6737H45.7537V21.2776L45.7516 21.2754ZM57.1644 27.4154C57.9905 27.4154 58.286 27.3694 58.5614 27.2313C58.9011 27.0232 59.1121 26.6068 59.1121 26.0765C59.1121 25.452 58.8367 24.9918 58.3704 24.8078C58.0951 24.7157 57.884 24.6916 57.0579 24.6916H49.9445V27.4154H57.1644ZM57.6287 33.2574C58.4971 33.2574 58.6659 33.2355 58.9413 33.1435C59.3654 32.9813 59.6186 32.519 59.6186 31.8747C59.6186 31.2305 59.3654 30.744 58.8991 30.5599C58.6458 30.4679 58.4749 30.4438 57.5222 30.4438H49.9425V33.2596H57.6287V33.2574Z" fill="black"/>
<path d="M66.1611 21.2754H70.4585V32.8652H80.1769V36.6737H66.1591V21.2776L66.1611 21.2754Z" fill="black"/>
<path d="M97.0729 21.3453C99.2537 21.7836 100.313 23.0085 100.608 25.4781C100.693 26.1004 100.735 27.3473 100.735 29.2165C100.735 32.9329 100.375 34.434 99.1673 35.5187C98.3211 36.3031 97.1352 36.6735 95.081 36.7655C94.3192 36.8115 92.4338 36.8356 91.0569 36.8356C87.6902 36.8356 85.9757 36.7655 85.1295 36.5814C83.5617 36.2812 82.6511 35.6348 82.1225 34.5041C81.5718 33.3734 81.4451 32.2405 81.4451 28.8724C81.4451 26.2867 81.4873 25.6403 81.7426 24.6016C82.1446 22.9625 82.9707 22.086 84.5586 21.5776C85.7445 21.2095 87.0369 21.1152 90.7635 21.1152C94.8297 21.1152 96.0779 21.1613 97.0729 21.3453ZM86.5284 25.4299C85.9576 25.9164 85.7867 26.6768 85.7867 28.8922C85.7867 31.1076 85.9556 31.9863 86.4862 32.4706C87.057 32.9767 87.7565 33.071 90.9966 33.071C94.7011 33.071 95.4649 32.9329 95.9513 32.1945C96.3533 31.6401 96.4598 30.8556 96.4598 28.8001C96.4598 24.9215 96.3955 24.8755 91.1032 24.8755C87.9475 24.8755 87.0792 24.9895 86.5304 25.4277L86.5284 25.4299Z" fill="black"/>
<path d="M120.638 30.8798C120.616 33.1193 120.554 33.8797 120.256 34.5721C119.705 35.8869 118.562 36.5114 116.361 36.6736C115.493 36.7656 113.798 36.7897 110.982 36.7897C106.916 36.7897 105.603 36.5816 104.46 35.773C103.063 34.8044 102.659 33.1872 102.659 28.6162C102.659 24.5535 103.083 23.0985 104.564 22.1759C105.834 21.3674 107.189 21.1592 111.149 21.1592C116.421 21.1592 117.565 21.2753 118.771 21.9218C119.915 22.5441 120.443 23.9071 120.443 26.1685V26.6769H116.335C116.25 24.9918 115.933 24.8537 112.206 24.8537C108.691 24.8537 108.056 24.9457 107.527 25.4541C107.018 25.9625 106.914 26.5848 106.914 29.0785C106.914 32.7709 107.231 33.0492 111.36 33.0492C114.558 33.0492 115.022 33.0273 115.615 32.749C116.23 32.4729 116.461 31.9864 116.461 30.8798H120.632H120.638Z" fill="black"/>
<path d="M122.753 21.2754H127.05V27.0232H129.295L135.138 21.2754H141.046L132.935 28.8924L141.828 36.6715H135.581L129.207 30.7615H127.046V36.6715H122.749V21.2754H122.753Z" fill="black"/>
<path d="M146.636 31.7563C146.678 32.8169 146.784 33.0711 147.293 33.2793C147.61 33.4173 148.816 33.5093 150.173 33.5093C155.15 33.5093 155.741 33.3472 155.741 32.0784C155.741 31.4539 155.465 30.9937 155.021 30.8316C154.71 30.7235 153.814 30.6621 152.332 30.6475H148.437C145.832 30.6475 144.752 30.4854 143.842 29.977C142.825 29.4007 142.36 28.1757 142.36 26.0765C142.36 23.3067 143.08 22.1299 145.114 21.5974C146.258 21.2753 147.908 21.1592 150.999 21.1592C155.954 21.1592 157.098 21.2972 158.115 22.0138C159.09 22.7303 159.405 23.677 159.405 25.9844H155.212C155.212 24.6455 154.788 24.4615 152.014 24.4615C150.637 24.4615 148.796 24.5075 148.119 24.5535C146.975 24.6455 146.595 24.9699 146.595 25.8464C146.595 26.4928 146.891 26.907 147.506 27.0691C147.759 27.1392 147.846 27.1612 149.243 27.1853H153.244C153.626 27.1853 155.532 27.2554 156.251 27.3014C158.941 27.4394 160 28.7323 160 31.8264C160 34.6664 159.238 35.911 157.162 36.3975C156.103 36.6517 154.006 36.7897 150.937 36.7897C146.047 36.7897 144.965 36.6736 143.717 35.9811C142.849 35.5188 142.405 34.342 142.405 32.5189C142.405 32.3808 142.405 32.0806 142.427 31.7563H146.64H146.636Z" fill="black"/>
</svg>
